<?xml version="1.0" encoding="utf-8" standalone="no"?>
<!DOCTYPE svg PUBLIC "-//W3C//DTD SVG 1.1//EN"
  "http://www.w3.org/Graphics/SVG/1.1/DTD/svg11.dtd">
<!-- Created with matplotlib (http://matplotlib.org/) -->
<svg height="288pt" version="1.1" viewBox="0 0 432 288" width="432pt" xmlns="http://www.w3.org/2000/svg" xmlns:xlink="http://www.w3.org/1999/xlink">
 <defs>
  <style type="text/css">
*{stroke-linecap:butt;stroke-linejoin:round;}
  </style>
 </defs>
 <g id="figure_1">
  <g id="patch_1">
   <path d="M 0 288 
L 432 288 
L 432 0 
L 0 0 
z
" style="fill:#ffffff;"/>
  </g>
  <g id="axes_1">
   <g id="patch_2">
    <path d="M 54 252 
L 388.8 252 
L 388.8 34.56 
L 54 34.56 
z
" style="fill:#ffffff;"/>
   </g>
   <g id="PathCollection_1">
    <defs>
     <path d="M 0 0.5 
C 0.132602 0.5 0.25979 0.447317 0.353553 0.353553 
C 0.447317 0.25979 0.5 0.132602 0.5 0 
C 0.5 -0.132602 0.447317 -0.25979 0.353553 -0.353553 
C 0.25979 -0.447317 0.132602 -0.5 0 -0.5 
C -0.132602 -0.5 -0.25979 -0.447317 -0.353553 -0.353553 
C -0.447317 -0.25979 -0.5 -0.132602 -0.5 0 
C -0.5 0.132602 -0.447317 0.25979 -0.353553 0.353553 
C -0.25979 0.447317 -0.132602 0.5 0 0.5 
z
" id="m20a4f4d325" style="stroke:#1f77b4;"/>
    </defs>
    <g clip-path="url(#pc6356caf2f)">
     <use style="fill:#1f77b4;stroke:#1f77b4;" x="69.225396" xlink:href="#m20a4f4d325" y="241.51037"/>
     <use style="fill:#1f77b4;stroke:#1f77b4;" x="74.056336" xlink:href="#m20a4f4d325" y="242.116256"/>
     <use style="fill:#1f77b4;stroke:#1f77b4;" x="78.887276" xlink:href="#m20a4f4d325" y="242.116256"/>
     <use style="fill:#1f77b4;stroke:#1f77b4;" x="83.718216" xlink:href="#m20a4f4d325" y="241.883223"/>
     <use style="fill:#1f77b4;stroke:#1f77b4;" x="88.549156" xlink:href="#m20a4f4d325" y="241.92983"/>
     <use style="fill:#1f77b4;stroke:#1f77b4;" x="93.380095" xlink:href="#m20a4f4d325" y="241.417156"/>
     <use style="fill:#1f77b4;stroke:#1f77b4;" x="98.211035" xlink:href="#m20a4f4d325" y="240.718056"/>
     <use style="fill:#1f77b4;stroke:#1f77b4;" x="103.041975" xlink:href="#m20a4f4d325" y="239.506283"/>
     <use style="fill:#1f77b4;stroke:#1f77b4;" x="107.872915" xlink:href="#m20a4f4d325" y="237.59541"/>
     <use style="fill:#1f77b4;stroke:#1f77b4;" x="112.703855" xlink:href="#m20a4f4d325" y="234.193123"/>
     <use style="fill:#1f77b4;stroke:#1f77b4;" x="117.534794" xlink:href="#m20a4f4d325" y="232.561889"/>
     <use style="fill:#1f77b4;stroke:#1f77b4;" x="122.365734" xlink:href="#m20a4f4d325" y="228.413896"/>
     <use style="fill:#1f77b4;stroke:#1f77b4;" x="127.196674" xlink:href="#m20a4f4d325" y="222.121996"/>
     <use style="fill:#1f77b4;stroke:#1f77b4;" x="132.027614" xlink:href="#m20a4f4d325" y="214.525109"/>
     <use style="fill:#1f77b4;stroke:#1f77b4;" x="136.858554" xlink:href="#m20a4f4d325" y="207.673928"/>
     <use style="fill:#1f77b4;stroke:#1f77b4;" x="141.689493" xlink:href="#m20a4f4d325" y="201.615062"/>
     <use style="fill:#1f77b4;stroke:#1f77b4;" x="146.520433" xlink:href="#m20a4f4d325" y="187.586454"/>
     <use style="fill:#1f77b4;stroke:#1f77b4;" x="151.351373" xlink:href="#m20a4f4d325" y="177.938874"/>
     <use style="fill:#1f77b4;stroke:#1f77b4;" x="156.182313" xlink:href="#m20a4f4d325" y="170.528414"/>
     <use style="fill:#1f77b4;stroke:#1f77b4;" x="161.013253" xlink:href="#m20a4f4d325" y="152.11878"/>
     <use style="fill:#1f77b4;stroke:#1f77b4;" x="165.844192" xlink:href="#m20a4f4d325" y="141.166212"/>
     <use style="fill:#1f77b4;stroke:#1f77b4;" x="170.675132" xlink:href="#m20a4f4d325" y="123.502285"/>
     <use style="fill:#1f77b4;stroke:#1f77b4;" x="175.506072" xlink:href="#m20a4f4d325" y="116.464678"/>
     <use style="fill:#1f77b4;stroke:#1f77b4;" x="180.337012" xlink:href="#m20a4f4d325" y="107.702625"/>
     <use style="fill:#1f77b4;stroke:#1f77b4;" x="185.167952" xlink:href="#m20a4f4d325" y="89.106564"/>
     <use style="fill:#1f77b4;stroke:#1f77b4;" x="189.998891" xlink:href="#m20a4f4d325" y="85.750884"/>
     <use style="fill:#1f77b4;stroke:#1f77b4;" x="194.829831" xlink:href="#m20a4f4d325" y="73.679756"/>
     <use style="fill:#1f77b4;stroke:#1f77b4;" x="199.660771" xlink:href="#m20a4f4d325" y="57.740276"/>
     <use style="fill:#1f77b4;stroke:#1f77b4;" x="204.491711" xlink:href="#m20a4f4d325" y="53.965136"/>
     <use style="fill:#1f77b4;stroke:#1f77b4;" x="209.322651" xlink:href="#m20a4f4d325" y="47.766449"/>
     <use style="fill:#1f77b4;stroke:#1f77b4;" x="214.15359" xlink:href="#m20a4f4d325" y="47.113955"/>
     <use style="fill:#1f77b4;stroke:#1f77b4;" x="218.98453" xlink:href="#m20a4f4d325" y="48.092695"/>
     <use style="fill:#1f77b4;stroke:#1f77b4;" x="223.81547" xlink:href="#m20a4f4d325" y="45.622542"/>
     <use style="fill:#1f77b4;stroke:#1f77b4;" x="228.64641" xlink:href="#m20a4f4d325" y="53.825316"/>
     <use style="fill:#1f77b4;stroke:#1f77b4;" x="233.477349" xlink:href="#m20a4f4d325" y="54.384596"/>
     <use style="fill:#1f77b4;stroke:#1f77b4;" x="238.308289" xlink:href="#m20a4f4d325" y="62.820403"/>
     <use style="fill:#1f77b4;stroke:#1f77b4;" x="243.139229" xlink:href="#m20a4f4d325" y="71.11639"/>
     <use style="fill:#1f77b4;stroke:#1f77b4;" x="247.970169" xlink:href="#m20a4f4d325" y="76.70919"/>
     <use style="fill:#1f77b4;stroke:#1f77b4;" x="252.801109" xlink:href="#m20a4f4d325" y="87.89479"/>
     <use style="fill:#1f77b4;stroke:#1f77b4;" x="257.632048" xlink:href="#m20a4f4d325" y="102.063218"/>
     <use style="fill:#1f77b4;stroke:#1f77b4;" x="262.462988" xlink:href="#m20a4f4d325" y="113.155605"/>
     <use style="fill:#1f77b4;stroke:#1f77b4;" x="267.293928" xlink:href="#m20a4f4d325" y="119.074652"/>
     <use style="fill:#1f77b4;stroke:#1f77b4;" x="272.124868" xlink:href="#m20a4f4d325" y="135.899659"/>
     <use style="fill:#1f77b4;stroke:#1f77b4;" x="276.955808" xlink:href="#m20a4f4d325" y="148.436853"/>
     <use style="fill:#1f77b4;stroke:#1f77b4;" x="281.786747" xlink:href="#m20a4f4d325" y="162.046"/>
     <use style="fill:#1f77b4;stroke:#1f77b4;" x="286.617687" xlink:href="#m20a4f4d325" y="172.346074"/>
     <use style="fill:#1f77b4;stroke:#1f77b4;" x="291.448627" xlink:href="#m20a4f4d325" y="180.175994"/>
     <use style="fill:#1f77b4;stroke:#1f77b4;" x="296.279567" xlink:href="#m20a4f4d325" y="186.840748"/>
     <use style="fill:#1f77b4;stroke:#1f77b4;" x="301.110507" xlink:href="#m20a4f4d325" y="198.072955"/>
     <use style="fill:#1f77b4;stroke:#1f77b4;" x="305.941446" xlink:href="#m20a4f4d325" y="206.089302"/>
     <use style="fill:#1f77b4;stroke:#1f77b4;" x="310.772386" xlink:href="#m20a4f4d325" y="210.656755"/>
     <use style="fill:#1f77b4;stroke:#1f77b4;" x="315.603326" xlink:href="#m20a4f4d325" y="217.880789"/>
     <use style="fill:#1f77b4;stroke:#1f77b4;" x="320.434266" xlink:href="#m20a4f4d325" y="223.753229"/>
     <use style="fill:#1f77b4;stroke:#1f77b4;" x="325.265206" xlink:href="#m20a4f4d325" y="227.481763"/>
     <use style="fill:#1f77b4;stroke:#1f77b4;" x="330.096145" xlink:href="#m20a4f4d325" y="230.930656"/>
     <use style="fill:#1f77b4;stroke:#1f77b4;" x="334.927085" xlink:href="#m20a4f4d325" y="235.824356"/>
     <use style="fill:#1f77b4;stroke:#1f77b4;" x="339.758025" xlink:href="#m20a4f4d325" y="236.803096"/>
     <use style="fill:#1f77b4;stroke:#1f77b4;" x="344.588965" xlink:href="#m20a4f4d325" y="238.807183"/>
     <use style="fill:#1f77b4;stroke:#1f77b4;" x="349.419905" xlink:href="#m20a4f4d325" y="239.925743"/>
     <use style="fill:#1f77b4;stroke:#1f77b4;" x="354.250844" xlink:href="#m20a4f4d325" y="241.277336"/>
     <use style="fill:#1f77b4;stroke:#1f77b4;" x="359.081784" xlink:href="#m20a4f4d325" y="241.556976"/>
     <use style="fill:#1f77b4;stroke:#1f77b4;" x="363.912724" xlink:href="#m20a4f4d325" y="242.023043"/>
     <use style="fill:#1f77b4;stroke:#1f77b4;" x="368.743664" xlink:href="#m20a4f4d325" y="242.023043"/>
     <use style="fill:#1f77b4;stroke:#1f77b4;" x="373.574604" xlink:href="#m20a4f4d325" y="242.116256"/>
    </g>
   </g>
   <g id="matplotlib.axis_1">
    <g id="xtick_1">
     <g id="line2d_1">
      <defs>
       <path d="M 0 0 
L 0 3.5 
" id="m6907432582" style="stroke:#000000;stroke-width:0.8;"/>
      </defs>
      <g>
       <use style="stroke:#000000;stroke-width:0.8;" x="69.225396" xlink:href="#m6907432582" y="252"/>
      </g>
     </g>
     <g id="text_1">
      <!-- 0 -->
      <defs>
       <path d="M 31.78125 66.40625 
Q 24.171875 66.40625 20.328125 58.90625 
Q 16.5 51.421875 16.5 36.375 
Q 16.5 21.390625 20.328125 13.890625 
Q 24.171875 6.390625 31.78125 6.390625 
Q 39.453125 6.390625 43.28125 13.890625 
Q 47.125 21.390625 47.125 36.375 
Q 47.125 51.421875 43.28125 58.90625 
Q 39.453125 66.40625 31.78125 66.40625 
z
M 31.78125 74.21875 
Q 44.046875 74.21875 50.515625 64.515625 
Q 56.984375 54.828125 56.984375 36.375 
Q 56.984375 17.96875 50.515625 8.265625 
Q 44.046875 -1.421875 31.78125 -1.421875 
Q 19.53125 -1.421875 13.0625 8.265625 
Q 6.59375 17.96875 6.59375 36.375 
Q 6.59375 54.828125 13.0625 64.515625 
Q 19.53125 74.21875 31.78125 74.21875 
z
" id="DejaVuSans-30"/>
      </defs>
      <g transform="translate(66.044146 266.598437)scale(0.1 -0.1)">
       <use xlink:href="#DejaVuSans-30"/>
      </g>
     </g>
    </g>
    <g id="xtick_2">
     <g id="line2d_2">
      <g>
       <use style="stroke:#000000;stroke-width:0.8;" x="117.534794" xlink:href="#m6907432582" y="252"/>
      </g>
     </g>
     <g id="text_2">
      <!-- 10 -->
      <defs>
       <path d="M 12.40625 8.296875 
L 28.515625 8.296875 
L 28.515625 63.921875 
L 10.984375 60.40625 
L 10.984375 69.390625 
L 28.421875 72.90625 
L 38.28125 72.90625 
L 38.28125 8.296875 
L 54.390625 8.296875 
L 54.390625 0 
L 12.40625 0 
z
" id="DejaVuSans-31"/>
      </defs>
      <g transform="translate(111.172294 266.598437)scale(0.1 -0.1)">
       <use xlink:href="#DejaVuSans-31"/>
       <use x="63.623047" xlink:href="#DejaVuSans-30"/>
      </g>
     </g>
    </g>
    <g id="xtick_3">
     <g id="line2d_3">
      <g>
       <use style="stroke:#000000;stroke-width:0.8;" x="165.844192" xlink:href="#m6907432582" y="252"/>
      </g>
     </g>
     <g id="text_3">
      <!-- 20 -->
      <defs>
       <path d="M 19.1875 8.296875 
L 53.609375 8.296875 
L 53.609375 0 
L 7.328125 0 
L 7.328125 8.296875 
Q 12.9375 14.109375 22.625 23.890625 
Q 32.328125 33.6875 34.8125 36.53125 
Q 39.546875 41.84375 41.421875 45.53125 
Q 43.3125 49.21875 43.3125 52.78125 
Q 43.3125 58.59375 39.234375 62.25 
Q 35.15625 65.921875 28.609375 65.921875 
Q 23.96875 65.921875 18.8125 64.3125 
Q 13.671875 62.703125 7.8125 59.421875 
L 7.8125 69.390625 
Q 13.765625 71.78125 18.9375 73 
Q 24.125 74.21875 28.421875 74.21875 
Q 39.75 74.21875 46.484375 68.546875 
Q 53.21875 62.890625 53.21875 53.421875 
Q 53.21875 48.921875 51.53125 44.890625 
Q 49.859375 40.875 45.40625 35.40625 
Q 44.1875 33.984375 37.640625 27.21875 
Q 31.109375 20.453125 19.1875 8.296875 
z
" id="DejaVuSans-32"/>
      </defs>
      <g transform="translate(159.481692 266.598437)scale(0.1 -0.1)">
       <use xlink:href="#DejaVuSans-32"/>
       <use x="63.623047" xlink:href="#DejaVuSans-30"/>
      </g>
     </g>
    </g>
    <g id="xtick_4">
     <g id="line2d_4">
      <g>
       <use style="stroke:#000000;stroke-width:0.8;" x="214.15359" xlink:href="#m6907432582" y="252"/>
      </g>
     </g>
     <g id="text_4">
      <!-- 30 -->
      <defs>
       <path d="M 40.578125 39.3125 
Q 47.65625 37.796875 51.625 33 
Q 55.609375 28.21875 55.609375 21.1875 
Q 55.609375 10.40625 48.1875 4.484375 
Q 40.765625 -1.421875 27.09375 -1.421875 
Q 22.515625 -1.421875 17.65625 -0.515625 
Q 12.796875 0.390625 7.625 2.203125 
L 7.625 11.71875 
Q 11.71875 9.328125 16.59375 8.109375 
Q 21.484375 6.890625 26.8125 6.890625 
Q 36.078125 6.890625 40.9375 10.546875 
Q 45.796875 14.203125 45.796875 21.1875 
Q 45.796875 27.640625 41.28125 31.265625 
Q 36.765625 34.90625 28.71875 34.90625 
L 20.21875 34.90625 
L 20.21875 43.015625 
L 29.109375 43.015625 
Q 36.375 43.015625 40.234375 45.921875 
Q 44.09375 48.828125 44.09375 54.296875 
Q 44.09375 59.90625 40.109375 62.90625 
Q 36.140625 65.921875 28.71875 65.921875 
Q 24.65625 65.921875 20.015625 65.03125 
Q 15.375 64.15625 9.8125 62.3125 
L 9.8125 71.09375 
Q 15.4375 72.65625 20.34375 73.4375 
Q 25.25 74.21875 29.59375 74.21875 
Q 40.828125 74.21875 47.359375 69.109375 
Q 53.90625 64.015625 53.90625 55.328125 
Q 53.90625 49.265625 50.4375 45.09375 
Q 46.96875 40.921875 40.578125 39.3125 
z
" id="DejaVuSans-33"/>
      </defs>
      <g transform="translate(207.79109 266.598437)scale(0.1 -0.1)">
       <use xlink:href="#DejaVuSans-33"/>
       <use x="63.623047" xlink:href="#DejaVuSans-30"/>
      </g>
     </g>
    </g>
    <g id="xtick_5">
     <g id="line2d_5">
      <g>
       <use style="stroke:#000000;stroke-width:0.8;" x="262.462988" xlink:href="#m6907432582" y="252"/>
      </g>
     </g>
     <g id="text_5">
      <!-- 40 -->
      <defs>
       <path d="M 37.796875 64.3125 
L 12.890625 25.390625 
L 37.796875 25.390625 
z
M 35.203125 72.90625 
L 47.609375 72.90625 
L 47.609375 25.390625 
L 58.015625 25.390625 
L 58.015625 17.1875 
L 47.609375 17.1875 
L 47.609375 0 
L 37.796875 0 
L 37.796875 17.1875 
L 4.890625 17.1875 
L 4.890625 26.703125 
z
" id="DejaVuSans-34"/>
      </defs>
      <g transform="translate(256.100488 266.598437)scale(0.1 -0.1)">
       <use xlink:href="#DejaVuSans-34"/>
       <use x="63.623047" xlink:href="#DejaVuSans-30"/>
      </g>
     </g>
    </g>
    <g id="xtick_6">
     <g id="line2d_6">
      <g>
       <use style="stroke:#000000;stroke-width:0.8;" x="310.772386" xlink:href="#m6907432582" y="252"/>
      </g>
     </g>
     <g id="text_6">
      <!-- 50 -->
      <defs>
       <path d="M 10.796875 72.90625 
L 49.515625 72.90625 
L 49.515625 64.59375 
L 19.828125 64.59375 
L 19.828125 46.734375 
Q 21.96875 47.46875 24.109375 47.828125 
Q 26.265625 48.1875 28.421875 48.1875 
Q 40.625 48.1875 47.75 41.5 
Q 54.890625 34.8125 54.890625 23.390625 
Q 54.890625 11.625 47.5625 5.09375 
Q 40.234375 -1.421875 26.90625 -1.421875 
Q 22.3125 -1.421875 17.546875 -0.640625 
Q 12.796875 0.140625 7.71875 1.703125 
L 7.71875 11.625 
Q 12.109375 9.234375 16.796875 8.0625 
Q 21.484375 6.890625 26.703125 6.890625 
Q 35.15625 6.890625 40.078125 11.328125 
Q 45.015625 15.765625 45.015625 23.390625 
Q 45.015625 31 40.078125 35.4375 
Q 35.15625 39.890625 26.703125 39.890625 
Q 22.75 39.890625 18.8125 39.015625 
Q 14.890625 38.140625 10.796875 36.28125 
z
" id="DejaVuSans-35"/>
      </defs>
      <g transform="translate(304.409886 266.598437)scale(0.1 -0.1)">
       <use xlink:href="#DejaVuSans-35"/>
       <use x="63.623047" xlink:href="#DejaVuSans-30"/>
      </g>
     </g>
    </g>
    <g id="xtick_7">
     <g id="line2d_7">
      <g>
       <use style="stroke:#000000;stroke-width:0.8;" x="359.081784" xlink:href="#m6907432582" y="252"/>
      </g>
     </g>
     <g id="text_7">
      <!-- 60 -->
      <defs>
       <path d="M 33.015625 40.375 
Q 26.375 40.375 22.484375 35.828125 
Q 18.609375 31.296875 18.609375 23.390625 
Q 18.609375 15.53125 22.484375 10.953125 
Q 26.375 6.390625 33.015625 6.390625 
Q 39.65625 6.390625 43.53125 10.953125 
Q 47.40625 15.53125 47.40625 23.390625 
Q 47.40625 31.296875 43.53125 35.828125 
Q 39.65625 40.375 33.015625 40.375 
z
M 52.59375 71.296875 
L 52.59375 62.3125 
Q 48.875 64.0625 45.09375 64.984375 
Q 41.3125 65.921875 37.59375 65.921875 
Q 27.828125 65.921875 22.671875 59.328125 
Q 17.53125 52.734375 16.796875 39.40625 
Q 19.671875 43.65625 24.015625 45.921875 
Q 28.375 48.1875 33.59375 48.1875 
Q 44.578125 48.1875 50.953125 41.515625 
Q 57.328125 34.859375 57.328125 23.390625 
Q 57.328125 12.15625 50.6875 5.359375 
Q 44.046875 -1.421875 33.015625 -1.421875 
Q 20.359375 -1.421875 13.671875 8.265625 
Q 6.984375 17.96875 6.984375 36.375 
Q 6.984375 53.65625 15.1875 63.9375 
Q 23.390625 74.21875 37.203125 74.21875 
Q 40.921875 74.21875 44.703125 73.484375 
Q 48.484375 72.75 52.59375 71.296875 
z
" id="DejaVuSans-36"/>
      </defs>
      <g transform="translate(352.719284 266.598437)scale(0.1 -0.1)">
       <use xlink:href="#DejaVuSans-36"/>
       <use x="63.623047" xlink:href="#DejaVuSans-30"/>
      </g>
     </g>
    </g>
    <g id="text_8">
     <!-- Score de Blanc -->
     <defs>
      <path d="M 53.515625 70.515625 
L 53.515625 60.890625 
Q 47.90625 63.578125 42.921875 64.890625 
Q 37.9375 66.21875 33.296875 66.21875 
Q 25.25 66.21875 20.875 63.09375 
Q 16.5 59.96875 16.5 54.203125 
Q 16.5 49.359375 19.40625 46.890625 
Q 22.3125 44.4375 30.421875 42.921875 
L 36.375 41.703125 
Q 47.40625 39.59375 52.65625 34.296875 
Q 57.90625 29 57.90625 20.125 
Q 57.90625 9.515625 50.796875 4.046875 
Q 43.703125 -1.421875 29.984375 -1.421875 
Q 24.8125 -1.421875 18.96875 -0.25 
Q 13.140625 0.921875 6.890625 3.21875 
L 6.890625 13.375 
Q 12.890625 10.015625 18.65625 8.296875 
Q 24.421875 6.59375 29.984375 6.59375 
Q 38.421875 6.59375 43.015625 9.90625 
Q 47.609375 13.234375 47.609375 19.390625 
Q 47.609375 24.75 44.3125 27.78125 
Q 41.015625 30.8125 33.5 32.328125 
L 27.484375 33.5 
Q 16.453125 35.6875 11.515625 40.375 
Q 6.59375 45.0625 6.59375 53.421875 
Q 6.59375 63.09375 13.40625 68.65625 
Q 20.21875 74.21875 32.171875 74.21875 
Q 37.3125 74.21875 42.625 73.28125 
Q 47.953125 72.359375 53.515625 70.515625 
z
" id="DejaVuSans-53"/>
      <path d="M 48.78125 52.59375 
L 48.78125 44.1875 
Q 44.96875 46.296875 41.140625 47.34375 
Q 37.3125 48.390625 33.40625 48.390625 
Q 24.65625 48.390625 19.8125 42.84375 
Q 14.984375 37.3125 14.984375 27.296875 
Q 14.984375 17.28125 19.8125 11.734375 
Q 24.65625 6.203125 33.40625 6.203125 
Q 37.3125 6.203125 41.140625 7.25 
Q 44.96875 8.296875 48.78125 10.40625 
L 48.78125 2.09375 
Q 45.015625 0.34375 40.984375 -0.53125 
Q 36.96875 -1.421875 32.421875 -1.421875 
Q 20.0625 -1.421875 12.78125 6.34375 
Q 5.515625 14.109375 5.515625 27.296875 
Q 5.515625 40.671875 12.859375 48.328125 
Q 20.21875 56 33.015625 56 
Q 37.15625 56 41.109375 55.140625 
Q 45.0625 54.296875 48.78125 52.59375 
z
" id="DejaVuSans-63"/>
      <path d="M 30.609375 48.390625 
Q 23.390625 48.390625 19.1875 42.75 
Q 14.984375 37.109375 14.984375 27.296875 
Q 14.984375 17.484375 19.15625 11.84375 
Q 23.34375 6.203125 30.609375 6.203125 
Q 37.796875 6.203125 41.984375 11.859375 
Q 46.1875 17.53125 46.1875 27.296875 
Q 46.1875 37.015625 41.984375 42.703125 
Q 37.796875 48.390625 30.609375 48.390625 
z
M 30.609375 56 
Q 42.328125 56 49.015625 48.375 
Q 55.71875 40.765625 55.71875 27.296875 
Q 55.71875 13.875 49.015625 6.21875 
Q 42.328125 -1.421875 30.609375 -1.421875 
Q 18.84375 -1.421875 12.171875 6.21875 
Q 5.515625 13.875 5.515625 27.296875 
Q 5.515625 40.765625 12.171875 48.375 
Q 18.84375 56 30.609375 56 
z
" id="DejaVuSans-6f"/>
      <path d="M 41.109375 46.296875 
Q 39.59375 47.171875 37.8125 47.578125 
Q 36.03125 48 33.890625 48 
Q 26.265625 48 22.1875 43.046875 
Q 18.109375 38.09375 18.109375 28.8125 
L 18.109375 0 
L 9.078125 0 
L 9.078125 54.6875 
L 18.109375 54.6875 
L 18.109375 46.1875 
Q 20.953125 51.171875 25.484375 53.578125 
Q 30.03125 56 36.53125 56 
Q 37.453125 56 38.578125 55.875 
Q 39.703125 55.765625 41.0625 55.515625 
z
" id="DejaVuSans-72"/>
      <path d="M 56.203125 29.59375 
L 56.203125 25.203125 
L 14.890625 25.203125 
Q 15.484375 15.921875 20.484375 11.0625 
Q 25.484375 6.203125 34.421875 6.203125 
Q 39.59375 6.203125 44.453125 7.46875 
Q 49.3125 8.734375 54.109375 11.28125 
L 54.109375 2.78125 
Q 49.265625 0.734375 44.1875 -0.34375 
Q 39.109375 -1.421875 33.890625 -1.421875 
Q 20.796875 -1.421875 13.15625 6.1875 
Q 5.515625 13.8125 5.515625 26.8125 
Q 5.515625 40.234375 12.765625 48.109375 
Q 20.015625 56 32.328125 56 
Q 43.359375 56 49.78125 48.890625 
Q 56.203125 41.796875 56.203125 29.59375 
z
M 47.21875 32.234375 
Q 47.125 39.59375 43.09375 43.984375 
Q 39.0625 48.390625 32.421875 48.390625 
Q 24.90625 48.390625 20.390625 44.140625 
Q 15.875 39.890625 15.1875 32.171875 
z
" id="DejaVuSans-65"/>
      <path id="DejaVuSans-20"/>
      <path d="M 45.40625 46.390625 
L 45.40625 75.984375 
L 54.390625 75.984375 
L 54.390625 0 
L 45.40625 0 
L 45.40625 8.203125 
Q 42.578125 3.328125 38.25 0.953125 
Q 33.9375 -1.421875 27.875 -1.421875 
Q 17.96875 -1.421875 11.734375 6.484375 
Q 5.515625 14.40625 5.515625 27.296875 
Q 5.515625 40.1875 11.734375 48.09375 
Q 17.96875 56 27.875 56 
Q 33.9375 56 38.25 53.625 
Q 42.578125 51.265625 45.40625 46.390625 
z
M 14.796875 27.296875 
Q 14.796875 17.390625 18.875 11.75 
Q 22.953125 6.109375 30.078125 6.109375 
Q 37.203125 6.109375 41.296875 11.75 
Q 45.40625 17.390625 45.40625 27.296875 
Q 45.40625 37.203125 41.296875 42.84375 
Q 37.203125 48.484375 30.078125 48.484375 
Q 22.953125 48.484375 18.875 42.84375 
Q 14.796875 37.203125 14.796875 27.296875 
z
" id="DejaVuSans-64"/>
      <path d="M 19.671875 34.8125 
L 19.671875 8.109375 
L 35.5 8.109375 
Q 43.453125 8.109375 47.28125 11.40625 
Q 51.125 14.703125 51.125 21.484375 
Q 51.125 28.328125 47.28125 31.5625 
Q 43.453125 34.8125 35.5 34.8125 
z
M 19.671875 64.796875 
L 19.671875 42.828125 
L 34.28125 42.828125 
Q 41.5 42.828125 45.03125 45.53125 
Q 48.578125 48.25 48.578125 53.8125 
Q 48.578125 59.328125 45.03125 62.0625 
Q 41.5 64.796875 34.28125 64.796875 
z
M 9.8125 72.90625 
L 35.015625 72.90625 
Q 46.296875 72.90625 52.390625 68.21875 
Q 58.5 63.53125 58.5 54.890625 
Q 58.5 48.1875 55.375 44.234375 
Q 52.25 40.28125 46.1875 39.3125 
Q 53.46875 37.75 57.5 32.78125 
Q 61.53125 27.828125 61.53125 20.40625 
Q 61.53125 10.640625 54.890625 5.3125 
Q 48.25 0 35.984375 0 
L 9.8125 0 
z
" id="DejaVuSans-42"/>
      <path d="M 9.421875 75.984375 
L 18.40625 75.984375 
L 18.40625 0 
L 9.421875 0 
z
" id="DejaVuSans-6c"/>
      <path d="M 34.28125 27.484375 
Q 23.390625 27.484375 19.1875 25 
Q 14.984375 22.515625 14.984375 16.5 
Q 14.984375 11.71875 18.140625 8.90625 
Q 21.296875 6.109375 26.703125 6.109375 
Q 34.1875 6.109375 38.703125 11.40625 
Q 43.21875 16.703125 43.21875 25.484375 
L 43.21875 27.484375 
z
M 52.203125 31.203125 
L 52.203125 0 
L 43.21875 0 
L 43.21875 8.296875 
Q 40.140625 3.328125 35.546875 0.953125 
Q 30.953125 -1.421875 24.3125 -1.421875 
Q 15.921875 -1.421875 10.953125 3.296875 
Q 6 8.015625 6 15.921875 
Q 6 25.140625 12.171875 29.828125 
Q 18.359375 34.515625 30.609375 34.515625 
L 43.21875 34.515625 
L 43.21875 35.40625 
Q 43.21875 41.609375 39.140625 45 
Q 35.0625 48.390625 27.6875 48.390625 
Q 23 48.390625 18.546875 47.265625 
Q 14.109375 46.140625 10.015625 43.890625 
L 10.015625 52.203125 
Q 14.9375 54.109375 19.578125 55.046875 
Q 24.21875 56 28.609375 56 
Q 40.484375 56 46.34375 49.84375 
Q 52.203125 43.703125 52.203125 31.203125 
z
" id="DejaVuSans-61"/>
      <path d="M 54.890625 33.015625 
L 54.890625 0 
L 45.90625 0 
L 45.90625 32.71875 
Q 45.90625 40.484375 42.875 44.328125 
Q 39.84375 48.1875 33.796875 48.1875 
Q 26.515625 48.1875 22.3125 43.546875 
Q 18.109375 38.921875 18.109375 30.90625 
L 18.109375 0 
L 9.078125 0 
L 9.078125 54.6875 
L 18.109375 54.6875 
L 18.109375 46.1875 
Q 21.34375 51.125 25.703125 53.5625 
Q 30.078125 56 35.796875 56 
Q 45.21875 56 50.046875 50.171875 
Q 54.890625 44.34375 54.890625 33.015625 
z
" id="DejaVuSans-6e"/>
     </defs>
     <g transform="translate(184.05625 280.276563)scale(0.1 -0.1)">
      <use xlink:href="#DejaVuSans-53"/>
      <use x="63.476562" xlink:href="#DejaVuSans-63"/>
      <use x="118.457031" xlink:href="#DejaVuSans-6f"/>
      <use x="179.638672" xlink:href="#DejaVuSans-72"/>
      <use x="220.720703" xlink:href="#DejaVuSans-65"/>
      <use x="282.244141" xlink:href="#DejaVuSans-20"/>
      <use x="314.03125" xlink:href="#DejaVuSans-64"/>
      <use x="377.507812" xlink:href="#DejaVuSans-65"/>
      <use x="439.03125" xlink:href="#DejaVuSans-20"/>
      <use x="470.818359" xlink:href="#DejaVuSans-42"/>
      <use x="539.421875" xlink:href="#DejaVuSans-6c"/>
      <use x="567.205078" xlink:href="#DejaVuSans-61"/>
      <use x="628.484375" xlink:href="#DejaVuSans-6e"/>
      <use x="691.863281" xlink:href="#DejaVuSans-63"/>
     </g>
    </g>
   </g>
   <g id="matplotlib.axis_2">
    <g id="ytick_1">
     <g id="line2d_8">
      <defs>
       <path d="M 0 0 
L -3.5 0 
" id="m54d628a00c" style="stroke:#000000;stroke-width:0.8;"/>
      </defs>
      <g>
       <use style="stroke:#000000;stroke-width:0.8;" x="54" xlink:href="#m54d628a00c" y="242.162863"/>
      </g>
     </g>
     <g id="text_9">
      <!-- 0 -->
      <g transform="translate(40.6375 245.962082)scale(0.1 -0.1)">
       <use xlink:href="#DejaVuSans-30"/>
      </g>
     </g>
    </g>
    <g id="ytick_2">
     <g id="line2d_9">
      <g>
       <use style="stroke:#000000;stroke-width:0.8;" x="54" xlink:href="#m54d628a00c" y="195.556195"/>
      </g>
     </g>
     <g id="text_10">
      <!-- 1000 -->
      <g transform="translate(21.55 199.355413)scale(0.1 -0.1)">
       <use xlink:href="#DejaVuSans-31"/>
       <use x="63.623047" xlink:href="#DejaVuSans-30"/>
       <use x="127.246094" xlink:href="#DejaVuSans-30"/>
       <use x="190.869141" xlink:href="#DejaVuSans-30"/>
      </g>
     </g>
    </g>
    <g id="ytick_3">
     <g id="line2d_10">
      <g>
       <use style="stroke:#000000;stroke-width:0.8;" x="54" xlink:href="#m54d628a00c" y="148.949526"/>
      </g>
     </g>
     <g id="text_11">
      <!-- 2000 -->
      <g transform="translate(21.55 152.748745)scale(0.1 -0.1)">
       <use xlink:href="#DejaVuSans-32"/>
       <use x="63.623047" xlink:href="#DejaVuSans-30"/>
       <use x="127.246094" xlink:href="#DejaVuSans-30"/>
       <use x="190.869141" xlink:href="#DejaVuSans-30"/>
      </g>
     </g>
    </g>
    <g id="ytick_4">
     <g id="line2d_11">
      <g>
       <use style="stroke:#000000;stroke-width:0.8;" x="54" xlink:href="#m54d628a00c" y="102.342858"/>
      </g>
     </g>
     <g id="text_12">
      <!-- 3000 -->
      <g transform="translate(21.55 106.142076)scale(0.1 -0.1)">
       <use xlink:href="#DejaVuSans-33"/>
       <use x="63.623047" xlink:href="#DejaVuSans-30"/>
       <use x="127.246094" xlink:href="#DejaVuSans-30"/>
       <use x="190.869141" xlink:href="#DejaVuSans-30"/>
      </g>
     </g>
    </g>
    <g id="ytick_5">
     <g id="line2d_12">
      <g>
       <use style="stroke:#000000;stroke-width:0.8;" x="54" xlink:href="#m54d628a00c" y="55.736189"/>
      </g>
     </g>
     <g id="text_13">
      <!-- 4000 -->
      <g transform="translate(21.55 59.535408)scale(0.1 -0.1)">
       <use xlink:href="#DejaVuSans-34"/>
       <use x="63.623047" xlink:href="#DejaVuSans-30"/>
       <use x="127.246094" xlink:href="#DejaVuSans-30"/>
       <use x="190.869141" xlink:href="#DejaVuSans-30"/>
      </g>
     </g>
    </g>
    <g id="text_14">
     <!-- Nombre de parties -->
     <defs>
      <path d="M 9.8125 72.90625 
L 23.09375 72.90625 
L 55.421875 11.921875 
L 55.421875 72.90625 
L 64.984375 72.90625 
L 64.984375 0 
L 51.703125 0 
L 19.390625 60.984375 
L 19.390625 0 
L 9.8125 0 
z
" id="DejaVuSans-4e"/>
      <path d="M 52 44.1875 
Q 55.375 50.25 60.0625 53.125 
Q 64.75 56 71.09375 56 
Q 79.640625 56 84.28125 50.015625 
Q 88.921875 44.046875 88.921875 33.015625 
L 88.921875 0 
L 79.890625 0 
L 79.890625 32.71875 
Q 79.890625 40.578125 77.09375 44.375 
Q 74.3125 48.1875 68.609375 48.1875 
Q 61.625 48.1875 57.5625 43.546875 
Q 53.515625 38.921875 53.515625 30.90625 
L 53.515625 0 
L 44.484375 0 
L 44.484375 32.71875 
Q 44.484375 40.625 41.703125 44.40625 
Q 38.921875 48.1875 33.109375 48.1875 
Q 26.21875 48.1875 22.15625 43.53125 
Q 18.109375 38.875 18.109375 30.90625 
L 18.109375 0 
L 9.078125 0 
L 9.078125 54.6875 
L 18.109375 54.6875 
L 18.109375 46.1875 
Q 21.1875 51.21875 25.484375 53.609375 
Q 29.78125 56 35.6875 56 
Q 41.65625 56 45.828125 52.96875 
Q 50 49.953125 52 44.1875 
z
" id="DejaVuSans-6d"/>
      <path d="M 48.6875 27.296875 
Q 48.6875 37.203125 44.609375 42.84375 
Q 40.53125 48.484375 33.40625 48.484375 
Q 26.265625 48.484375 22.1875 42.84375 
Q 18.109375 37.203125 18.109375 27.296875 
Q 18.109375 17.390625 22.1875 11.75 
Q 26.265625 6.109375 33.40625 6.109375 
Q 40.53125 6.109375 44.609375 11.75 
Q 48.6875 17.390625 48.6875 27.296875 
z
M 18.109375 46.390625 
Q 20.953125 51.265625 25.265625 53.625 
Q 29.59375 56 35.59375 56 
Q 45.5625 56 51.78125 48.09375 
Q 58.015625 40.1875 58.015625 27.296875 
Q 58.015625 14.40625 51.78125 6.484375 
Q 45.5625 -1.421875 35.59375 -1.421875 
Q 29.59375 -1.421875 25.265625 0.953125 
Q 20.953125 3.328125 18.109375 8.203125 
L 18.109375 0 
L 9.078125 0 
L 9.078125 75.984375 
L 18.109375 75.984375 
z
" id="DejaVuSans-62"/>
      <path d="M 18.109375 8.203125 
L 18.109375 -20.796875 
L 9.078125 -20.796875 
L 9.078125 54.6875 
L 18.109375 54.6875 
L 18.109375 46.390625 
Q 20.953125 51.265625 25.265625 53.625 
Q 29.59375 56 35.59375 56 
Q 45.5625 56 51.78125 48.09375 
Q 58.015625 40.1875 58.015625 27.296875 
Q 58.015625 14.40625 51.78125 6.484375 
Q 45.5625 -1.421875 35.59375 -1.421875 
Q 29.59375 -1.421875 25.265625 0.953125 
Q 20.953125 3.328125 18.109375 8.203125 
z
M 48.6875 27.296875 
Q 48.6875 37.203125 44.609375 42.84375 
Q 40.53125 48.484375 33.40625 48.484375 
Q 26.265625 48.484375 22.1875 42.84375 
Q 18.109375 37.203125 18.109375 27.296875 
Q 18.109375 17.390625 22.1875 11.75 
Q 26.265625 6.109375 33.40625 6.109375 
Q 40.53125 6.109375 44.609375 11.75 
Q 48.6875 17.390625 48.6875 27.296875 
z
" id="DejaVuSans-70"/>
      <path d="M 18.3125 70.21875 
L 18.3125 54.6875 
L 36.8125 54.6875 
L 36.8125 47.703125 
L 18.3125 47.703125 
L 18.3125 18.015625 
Q 18.3125 11.328125 20.140625 9.421875 
Q 21.96875 7.515625 27.59375 7.515625 
L 36.8125 7.515625 
L 36.8125 0 
L 27.59375 0 
Q 17.1875 0 13.234375 3.875 
Q 9.28125 7.765625 9.28125 18.015625 
L 9.28125 47.703125 
L 2.6875 47.703125 
L 2.6875 54.6875 
L 9.28125 54.6875 
L 9.28125 70.21875 
z
" id="DejaVuSans-74"/>
      <path d="M 9.421875 54.6875 
L 18.40625 54.6875 
L 18.40625 0 
L 9.421875 0 
z
M 9.421875 75.984375 
L 18.40625 75.984375 
L 18.40625 64.59375 
L 9.421875 64.59375 
z
" id="DejaVuSans-69"/>
      <path d="M 44.28125 53.078125 
L 44.28125 44.578125 
Q 40.484375 46.53125 36.375 47.5 
Q 32.28125 48.484375 27.875 48.484375 
Q 21.1875 48.484375 17.84375 46.4375 
Q 14.5 44.390625 14.5 40.28125 
Q 14.5 37.15625 16.890625 35.375 
Q 19.28125 33.59375 26.515625 31.984375 
L 29.59375 31.296875 
Q 39.15625 29.25 43.1875 25.515625 
Q 47.21875 21.78125 47.21875 15.09375 
Q 47.21875 7.46875 41.1875 3.015625 
Q 35.15625 -1.421875 24.609375 -1.421875 
Q 20.21875 -1.421875 15.453125 -0.5625 
Q 10.6875 0.296875 5.421875 2 
L 5.421875 11.28125 
Q 10.40625 8.6875 15.234375 7.390625 
Q 20.0625 6.109375 24.8125 6.109375 
Q 31.15625 6.109375 34.5625 8.28125 
Q 37.984375 10.453125 37.984375 14.40625 
Q 37.984375 18.0625 35.515625 20.015625 
Q 33.0625 21.96875 24.703125 23.78125 
L 21.578125 24.515625 
Q 13.234375 26.265625 9.515625 29.90625 
Q 5.8125 33.546875 5.8125 39.890625 
Q 5.8125 47.609375 11.28125 51.796875 
Q 16.75 56 26.8125 56 
Q 31.78125 56 36.171875 55.265625 
Q 40.578125 54.546875 44.28125 53.078125 
z
" id="DejaVuSans-73"/>
     </defs>
     <g transform="translate(15.470312 190.008125)rotate(-90)scale(0.1 -0.1)">
      <use xlink:href="#DejaVuSans-4e"/>
      <use x="74.804688" xlink:href="#DejaVuSans-6f"/>
      <use x="135.986328" xlink:href="#DejaVuSans-6d"/>
      <use x="233.398438" xlink:href="#DejaVuSans-62"/>
      <use x="296.875" xlink:href="#DejaVuSans-72"/>
      <use x="337.957031" xlink:href="#DejaVuSans-65"/>
      <use x="399.480469" xlink:href="#DejaVuSans-20"/>
      <use x="431.267578" xlink:href="#DejaVuSans-64"/>
      <use x="494.744141" xlink:href="#DejaVuSans-65"/>
      <use x="556.267578" xlink:href="#DejaVuSans-20"/>
      <use x="588.054688" xlink:href="#DejaVuSans-70"/>
      <use x="651.53125" xlink:href="#DejaVuSans-61"/>
      <use x="712.810547" xlink:href="#DejaVuSans-72"/>
      <use x="753.923828" xlink:href="#DejaVuSans-74"/>
      <use x="793.132812" xlink:href="#DejaVuSans-69"/>
      <use x="820.916016" xlink:href="#DejaVuSans-65"/>
      <use x="882.439453" xlink:href="#DejaVuSans-73"/>
     </g>
    </g>
   </g>
   <g id="line2d_13">
    <path clip-path="url(#pc6356caf2f)" d="M 69.225396 241.283516 
L 76.232435 240.726723 
L 82.020859 240.046665 
L 87.199974 239.209311 
L 91.769782 238.240829 
L 95.730282 237.188049 
L 99.690783 235.899438 
L 103.346629 234.466515 
L 106.697821 232.918365 
L 110.049014 231.117779 
L 113.095552 229.238127 
L 116.142091 227.105018 
L 119.18863 224.696905 
L 122.235168 221.992649 
L 125.281707 218.97199 
L 128.328245 215.616065 
L 131.374784 211.907965 
L 134.421323 207.833344 
L 137.467861 203.38104 
L 140.5144 198.543712 
L 143.865592 192.774652 
L 147.216785 186.539602 
L 150.567977 179.85015 
L 154.223824 172.058889 
L 158.184324 163.082942 
L 162.449478 152.873044 
L 167.628594 139.880366 
L 175.854248 118.524911 
L 183.470594 98.951529 
L 188.040402 87.801648 
L 191.696249 79.424415 
L 195.047441 72.294924 
L 198.09398 66.357253 
L 200.835864 61.517189 
L 203.273095 57.65621 
L 205.405672 54.64403 
L 207.538249 51.993256 
L 209.670826 49.720499 
L 211.49875 48.084248 
L 213.326673 46.743975 
L 215.154596 45.705981 
L 216.677865 45.075474 
L 218.201134 44.660386 
L 219.724404 44.462086 
L 221.247673 44.481226 
L 222.770942 44.717745 
L 224.294212 45.170861 
L 225.817481 45.839083 
L 227.34075 46.720213 
L 229.168673 48.054493 
L 230.996597 49.68489 
L 232.82452 51.603775 
L 234.957097 54.195121 
L 237.089674 57.150675 
L 239.526905 60.950776 
L 241.964136 65.172096 
L 244.70602 70.383027 
L 247.752559 76.686577 
L 251.103751 84.158927 
L 255.064252 93.579777 
L 259.938713 105.806652 
L 268.164368 127.177071 
L 275.780714 146.735629 
L 280.655176 158.683221 
L 284.92033 168.586875 
L 288.88083 177.231521 
L 292.536677 184.687609 
L 295.887869 191.053108 
L 299.239061 196.955022 
L 302.590254 202.387807 
L 305.636793 206.921268 
L 308.683331 211.075148 
L 311.72987 214.859854 
L 314.776408 218.289109 
L 317.822947 221.379328 
L 320.869486 224.149012 
L 323.916024 226.618167 
L 326.962563 228.807787 
L 330.009101 230.739368 
L 333.360294 232.591825 
L 336.711486 234.186476 
L 340.367333 235.664264 
L 344.023179 236.901713 
L 347.983679 238.007677 
L 352.248833 238.966886 
L 357.123295 239.820008 
L 362.302411 240.49908 
L 368.395488 241.068546 
L 373.574604 241.406952 
L 373.574604 241.406952 
" style="fill:none;stroke:#ffa500;stroke-linecap:square;stroke-width:1.5;"/>
   </g>
   <g id="patch_3">
    <path d="M 54 252 
L 54 34.56 
" style="fill:none;stroke:#000000;stroke-linecap:square;stroke-linejoin:miter;stroke-width:0.8;"/>
   </g>
   <g id="patch_4">
    <path d="M 388.8 252 
L 388.8 34.56 
" style="fill:none;stroke:#000000;stroke-linecap:square;stroke-linejoin:miter;stroke-width:0.8;"/>
   </g>
   <g id="patch_5">
    <path d="M 54 252 
L 388.8 252 
" style="fill:none;stroke:#000000;stroke-linecap:square;stroke-linejoin:miter;stroke-width:0.8;"/>
   </g>
   <g id="patch_6">
    <path d="M 54 34.56 
L 388.8 34.56 
" style="fill:none;stroke:#000000;stroke-linecap:square;stroke-linejoin:miter;stroke-width:0.8;"/>
   </g>
   <g id="text_15">
    <!-- (a,$\sigma,\mu$) = (1.01e+05, 9.51, 31.3) -->
    <defs>
     <path d="M 31 75.875 
Q 24.46875 64.65625 21.28125 53.65625 
Q 18.109375 42.671875 18.109375 31.390625 
Q 18.109375 20.125 21.3125 9.0625 
Q 24.515625 -2 31 -13.1875 
L 23.1875 -13.1875 
Q 15.875 -1.703125 12.234375 9.375 
Q 8.59375 20.453125 8.59375 31.390625 
Q 8.59375 42.28125 12.203125 53.3125 
Q 15.828125 64.359375 23.1875 75.875 
z
" id="DejaVuSans-28"/>
     <path d="M 11.71875 12.40625 
L 22.015625 12.40625 
L 22.015625 4 
L 14.015625 -11.625 
L 7.71875 -11.625 
L 11.71875 4 
z
" id="DejaVuSans-2c"/>
     <path d="M 34.671875 47.5625 
Q 27.25 47.5625 22.21875 42.1875 
Q 16.890625 36.578125 15.140625 27.296875 
Q 13.1875 17.484375 16.3125 11.8125 
Q 19.390625 6.203125 26.65625 6.203125 
Q 33.84375 6.203125 39.109375 11.859375 
Q 44.4375 17.53125 46.34375 27.296875 
Q 48.046875 36.234375 45.015625 42.1875 
Q 42.1875 47.5625 34.671875 47.5625 
z
M 36.078125 54.734375 
L 65.921875 54.6875 
L 64.15625 45.703125 
L 54.109375 45.703125 
Q 57.90625 38.09375 55.859375 27.296875 
Q 53.21875 13.875 45.0625 6.25 
Q 36.859375 -1.421875 25.140625 -1.421875 
Q 13.375 -1.421875 8.203125 6.25 
Q 3.03125 13.875 5.671875 27.296875 
Q 8.25 40.765625 16.40625 48.390625 
Q 23.1875 54.734375 36.078125 54.734375 
z
" id="DejaVuSans-Oblique-3c3"/>
     <path d="M -1.3125 -20.796875 
L 13.375 54.6875 
L 22.40625 54.6875 
L 15.765625 20.65625 
Q 15.578125 19.625 15.421875 18.359375 
Q 15.28125 17.09375 15.28125 15.828125 
Q 15.28125 11.28125 18.140625 8.828125 
Q 21 6.390625 26.3125 6.390625 
Q 33.546875 6.390625 37.984375 10.484375 
Q 42.4375 14.59375 44 22.796875 
L 50.203125 54.6875 
L 59.1875 54.6875 
L 51.03125 12.640625 
Q 50.828125 11.71875 50.75 11.03125 
Q 50.6875 10.359375 50.6875 9.8125 
Q 50.6875 8.296875 51.296875 7.59375 
Q 51.90625 6.890625 53.21875 6.890625 
Q 53.71875 6.890625 54.5625 7.125 
Q 55.421875 7.375 56.984375 8.015625 
L 55.609375 0.78125 
Q 53.46875 -0.296875 51.515625 -0.859375 
Q 49.5625 -1.421875 47.703125 -1.421875 
Q 44.484375 -1.421875 42.65625 0.625 
Q 40.828125 2.6875 40.828125 6.296875 
Q 38.09375 2.390625 34.296875 0.484375 
Q 30.515625 -1.421875 25.390625 -1.421875 
Q 20.84375 -1.421875 17.453125 0.671875 
Q 14.0625 2.78125 12.984375 6.203125 
L 7.71875 -20.796875 
z
" id="DejaVuSans-Oblique-3bc"/>
     <path d="M 8.015625 75.875 
L 15.828125 75.875 
Q 23.140625 64.359375 26.78125 53.3125 
Q 30.421875 42.28125 30.421875 31.390625 
Q 30.421875 20.453125 26.78125 9.375 
Q 23.140625 -1.703125 15.828125 -13.1875 
L 8.015625 -13.1875 
Q 14.5 -2 17.703125 9.0625 
Q 20.90625 20.125 20.90625 31.390625 
Q 20.90625 42.671875 17.703125 53.65625 
Q 14.5 64.65625 8.015625 75.875 
z
" id="DejaVuSans-29"/>
     <path d="M 10.59375 45.40625 
L 73.1875 45.40625 
L 73.1875 37.203125 
L 10.59375 37.203125 
z
M 10.59375 25.484375 
L 73.1875 25.484375 
L 73.1875 17.1875 
L 10.59375 17.1875 
z
" id="DejaVuSans-3d"/>
     <path d="M 10.6875 12.40625 
L 21 12.40625 
L 21 0 
L 10.6875 0 
z
" id="DejaVuSans-2e"/>
     <path d="M 46 62.703125 
L 46 35.5 
L 73.1875 35.5 
L 73.1875 27.203125 
L 46 27.203125 
L 46 0 
L 37.796875 0 
L 37.796875 27.203125 
L 10.59375 27.203125 
L 10.59375 35.5 
L 37.796875 35.5 
L 37.796875 62.703125 
z
" id="DejaVuSans-2b"/>
     <path d="M 10.984375 1.515625 
L 10.984375 10.5 
Q 14.703125 8.734375 18.5 7.8125 
Q 22.3125 6.890625 25.984375 6.890625 
Q 35.75 6.890625 40.890625 13.453125 
Q 46.046875 20.015625 46.78125 33.40625 
Q 43.953125 29.203125 39.59375 26.953125 
Q 35.25 24.703125 29.984375 24.703125 
Q 19.046875 24.703125 12.671875 31.3125 
Q 6.296875 37.9375 6.296875 49.421875 
Q 6.296875 60.640625 12.9375 67.421875 
Q 19.578125 74.21875 30.609375 74.21875 
Q 43.265625 74.21875 49.921875 64.515625 
Q 56.59375 54.828125 56.59375 36.375 
Q 56.59375 19.140625 48.40625 8.859375 
Q 40.234375 -1.421875 26.421875 -1.421875 
Q 22.703125 -1.421875 18.890625 -0.6875 
Q 15.09375 0.046875 10.984375 1.515625 
z
M 30.609375 32.421875 
Q 37.25 32.421875 41.125 36.953125 
Q 45.015625 41.5 45.015625 49.421875 
Q 45.015625 57.28125 41.125 61.84375 
Q 37.25 66.40625 30.609375 66.40625 
Q 23.96875 66.40625 20.09375 61.84375 
Q 16.21875 57.28125 16.21875 49.421875 
Q 16.21875 41.5 20.09375 36.953125 
Q 23.96875 32.421875 30.609375 32.421875 
z
" id="DejaVuSans-39"/>
    </defs>
    <g transform="translate(122.82 28.56)scale(0.12 -0.12)">
     <use transform="translate(0 0.125)" xlink:href="#DejaVuSans-28"/>
     <use transform="translate(39.013672 0.125)" xlink:href="#DejaVuSans-61"/>
     <use transform="translate(100.292969 0.125)" xlink:href="#DejaVuSans-2c"/>
     <use transform="translate(132.080078 0.125)" xlink:href="#DejaVuSans-Oblique-3c3"/>
     <use transform="translate(195.458984 0.125)" xlink:href="#DejaVuSans-2c"/>
     <use transform="translate(246.728516 0.125)" xlink:href="#DejaVuSans-Oblique-3bc"/>
     <use transform="translate(310.351562 0.125)" xlink:href="#DejaVuSans-29"/>
     <use transform="translate(349.365234 0.125)" xlink:href="#DejaVuSans-20"/>
     <use transform="translate(381.152344 0.125)" xlink:href="#DejaVuSans-3d"/>
     <use transform="translate(464.941406 0.125)" xlink:href="#DejaVuSans-20"/>
     <use transform="translate(496.728516 0.125)" xlink:href="#DejaVuSans-28"/>
     <use transform="translate(535.742188 0.125)" xlink:href="#DejaVuSans-31"/>
     <use transform="translate(599.365234 0.125)" xlink:href="#DejaVuSans-2e"/>
     <use transform="translate(631.152344 0.125)" xlink:href="#DejaVuSans-30"/>
     <use transform="translate(694.775391 0.125)" xlink:href="#DejaVuSans-31"/>
     <use transform="translate(758.398438 0.125)" xlink:href="#DejaVuSans-65"/>
     <use transform="translate(819.921875 0.125)" xlink:href="#DejaVuSans-2b"/>
     <use transform="translate(903.710938 0.125)" xlink:href="#DejaVuSans-30"/>
     <use transform="translate(967.333984 0.125)" xlink:href="#DejaVuSans-35"/>
     <use transform="translate(1030.957031 0.125)" xlink:href="#DejaVuSans-2c"/>
     <use transform="translate(1062.744141 0.125)" xlink:href="#DejaVuSans-20"/>
     <use transform="translate(1094.53125 0.125)" xlink:href="#DejaVuSans-39"/>
     <use transform="translate(1158.154297 0.125)" xlink:href="#DejaVuSans-2e"/>
     <use transform="translate(1189.941406 0.125)" xlink:href="#DejaVuSans-35"/>
     <use transform="translate(1253.564453 0.125)" xlink:href="#DejaVuSans-31"/>
     <use transform="translate(1317.1875 0.125)" xlink:href="#DejaVuSans-2c"/>
     <use transform="translate(1348.974609 0.125)" xlink:href="#DejaVuSans-20"/>
     <use transform="translate(1380.761719 0.125)" xlink:href="#DejaVuSans-33"/>
     <use transform="translate(1444.384766 0.125)" xlink:href="#DejaVuSans-31"/>
     <use transform="translate(1508.007812 0.125)" xlink:href="#DejaVuSans-2e"/>
     <use transform="translate(1539.794922 0.125)" xlink:href="#DejaVuSans-33"/>
     <use transform="translate(1603.417969 0.125)" xlink:href="#DejaVuSans-29"/>
    </g>
   </g>
   <g id="legend_1">
    <g id="patch_7">
     <path d="M 270.7 66.66 
L 381.8 66.66 
Q 383.8 66.66 383.8 64.66 
L 383.8 41.56 
Q 383.8 39.56 381.8 39.56 
L 270.7 39.56 
Q 268.7 39.56 268.7 41.56 
L 268.7 64.66 
Q 268.7 66.66 270.7 66.66 
z
" style="fill:#ffffff;opacity:0.8;stroke:#cccccc;stroke-linejoin:miter;"/>
    </g>
    <g id="line2d_14">
     <path d="M 272.7 52.46 
L 292.7 52.46 
" style="fill:none;stroke:#ffa500;stroke-linecap:square;stroke-width:1.5;"/>
    </g>
    <g id="line2d_15"/>
    <g id="text_16">
     <!-- y = $a\frac{1}{\sigma \sqrt{2\pi}}e^{-\frac{(x-\mu)^2}{2\sigma^2}}$ -->
     <defs>
      <path d="M 32.171875 -5.078125 
Q 28.375 -14.84375 24.75 -17.8125 
Q 21.140625 -20.796875 15.09375 -20.796875 
L 7.90625 -20.796875 
L 7.90625 -13.28125 
L 13.1875 -13.28125 
Q 16.890625 -13.28125 18.9375 -11.515625 
Q 21 -9.765625 23.484375 -3.21875 
L 25.09375 0.875 
L 2.984375 54.6875 
L 12.5 54.6875 
L 29.59375 11.921875 
L 46.6875 54.6875 
L 56.203125 54.6875 
z
" id="DejaVuSans-79"/>
      <path d="M 53.71875 31.203125 
L 47.609375 0 
L 38.625 0 
L 40.28125 8.296875 
Q 36.328125 3.421875 31.265625 1 
Q 26.21875 -1.421875 20.015625 -1.421875 
Q 13.03125 -1.421875 8.5625 2.84375 
Q 4.109375 7.125 4.109375 13.8125 
Q 4.109375 23.390625 11.75 28.953125 
Q 19.390625 34.515625 32.8125 34.515625 
L 45.3125 34.515625 
L 45.796875 36.921875 
Q 45.90625 37.3125 45.953125 37.765625 
Q 46 38.234375 46 39.203125 
Q 46 43.5625 42.453125 45.96875 
Q 38.921875 48.390625 32.515625 48.390625 
Q 28.125 48.390625 23.5 47.265625 
Q 18.890625 46.140625 14.015625 43.890625 
L 15.578125 52.203125 
Q 20.65625 54.109375 25.515625 55.046875 
Q 30.375 56 34.90625 56 
Q 44.578125 56 49.625 51.796875 
Q 54.6875 47.609375 54.6875 39.59375 
Q 54.6875 37.984375 54.4375 35.8125 
Q 54.203125 33.640625 53.71875 31.203125 
z
M 44 27.484375 
L 35.015625 27.484375 
Q 23.96875 27.484375 18.671875 24.53125 
Q 13.375 21.578125 13.375 15.375 
Q 13.375 11.078125 16.078125 8.640625 
Q 18.796875 6.203125 23.578125 6.203125 
Q 30.90625 6.203125 36.375 11.453125 
Q 41.84375 16.703125 43.609375 25.484375 
z
" id="DejaVuSans-Oblique-61"/>
      <path d="M 108.90625 155.203125 
L 52.703125 -29.5 
L 48.5 -29.5 
L 25.40625 45.59375 
Q 24.296875 49.203125 22.890625 50.796875 
Q 21.5 52.40625 19.203125 52.40625 
Q 15.796875 52.40625 12.40625 49.703125 
L 11.203125 51.703125 
L 27.59375 64.296875 
L 30.09375 64.296875 
L 52.796875 -9.40625 
L 53.203125 -9.40625 
L 103.203125 155.203125 
z
" id="STIXSizeOneSym-Regular-221a"/>
      <path d="M 9.125 54.6875 
L 61.53125 54.6875 
L 59.765625 45.703125 
L 52.875 45.703125 
L 46.34375 12.109375 
Q 45.65625 8.59375 46.578125 7.03125 
Q 47.46875 5.515625 50.140625 5.515625 
Q 50.875 5.515625 51.953125 5.671875 
Q 53.078125 5.765625 53.421875 5.8125 
L 52.15625 -0.6875 
Q 50.34375 -1.3125 48.484375 -1.609375 
Q 46.578125 -1.90625 44.78125 -1.90625 
Q 38.921875 -1.90625 37.3125 1.265625 
Q 35.6875 4.5 37.359375 13.09375 
L 43.703125 45.703125 
L 23.53125 45.703125 
L 14.65625 0 
L 5.46875 0 
L 14.359375 45.703125 
L 7.375 45.703125 
z
" id="DejaVuSans-Oblique-3c0"/>
      <path d="M 48.09375 32.234375 
Q 48.25 33.015625 48.3125 33.84375 
Q 48.390625 34.671875 48.390625 35.5 
Q 48.390625 41.453125 44.890625 44.921875 
Q 41.40625 48.390625 35.40625 48.390625 
Q 28.71875 48.390625 23.578125 44.15625 
Q 18.453125 39.9375 15.828125 32.171875 
z
M 55.90625 25.203125 
L 14.109375 25.203125 
Q 13.8125 23.34375 13.71875 22.265625 
Q 13.625 21.1875 13.625 20.40625 
Q 13.625 13.625 17.796875 9.90625 
Q 21.96875 6.203125 29.59375 6.203125 
Q 35.453125 6.203125 40.671875 7.515625 
Q 45.90625 8.84375 50.390625 11.375 
L 48.6875 2.484375 
Q 43.84375 0.53125 38.6875 -0.4375 
Q 33.546875 -1.421875 28.21875 -1.421875 
Q 16.84375 -1.421875 10.71875 4.015625 
Q 4.59375 9.46875 4.59375 19.484375 
Q 4.59375 28.03125 7.640625 35.375 
Q 10.6875 42.71875 16.609375 48.484375 
Q 20.40625 52.09375 25.65625 54.046875 
Q 30.90625 56 36.8125 56 
Q 46.09375 56 51.578125 50.4375 
Q 57.078125 44.875 57.078125 35.5 
Q 57.078125 33.25 56.78125 30.6875 
Q 56.5 28.125 55.90625 25.203125 
z
" id="DejaVuSans-Oblique-65"/>
      <path d="M 10.59375 35.5 
L 73.1875 35.5 
L 73.1875 27.203125 
L 10.59375 27.203125 
z
" id="DejaVuSans-2212"/>
      <path d="M 60.015625 54.6875 
L 34.90625 27.875 
L 50.296875 0 
L 39.984375 0 
L 28.421875 21.6875 
L 8.296875 0 
L -2.59375 0 
L 24.3125 28.8125 
L 10.015625 54.6875 
L 20.3125 54.6875 
L 30.8125 34.90625 
L 49.125 54.6875 
z
" id="DejaVuSans-Oblique-78"/>
     </defs>
     <g transform="translate(300.7 55.96)scale(0.1 -0.1)">
      <use transform="translate(0 0.655625)" xlink:href="#DejaVuSans-79"/>
      <use transform="translate(59.179688 0.655625)" xlink:href="#DejaVuSans-20"/>
      <use transform="translate(90.966797 0.655625)" xlink:href="#DejaVuSans-3d"/>
      <use transform="translate(174.755859 0.655625)" xlink:href="#DejaVuSans-20"/>
      <use transform="translate(206.542969 0.655625)" xlink:href="#DejaVuSans-Oblique-61"/>
      <use transform="translate(341.822266 44.4525)scale(0.7)" xlink:href="#DejaVuSans-31"/>
      <use transform="translate(267.822266 -64.80375)scale(0.7)" xlink:href="#DejaVuSans-Oblique-3c3"/>
      <use transform="translate(312.1875 -54.139688)scale(0.406937)" xlink:href="#STIXSizeOneSym-Regular-221a"/>
      <use transform="translate(363.944177 -65.125625)scale(0.7)" xlink:href="#DejaVuSans-32"/>
      <use transform="translate(408.48031 -65.125625)scale(0.7)" xlink:href="#DejaVuSans-Oblique-3c0"/>
      <use transform="translate(471.873865 0.655625)" xlink:href="#DejaVuSans-Oblique-65"/>
      <use transform="translate(538.047198 38.936875)scale(0.7)" xlink:href="#DejaVuSans-2212"/>
      <use transform="translate(596.699542 79.785156)scale(0.49)" xlink:href="#DejaVuSans-28"/>
      <use transform="translate(615.816241 79.785156)scale(0.49)" xlink:href="#DejaVuSans-Oblique-78"/>
      <use transform="translate(654.360675 79.785156)scale(0.49)" xlink:href="#DejaVuSans-2212"/>
      <use transform="translate(704.963702 79.785156)scale(0.49)" xlink:href="#DejaVuSans-Oblique-3bc"/>
      <use transform="translate(736.138995 79.785156)scale(0.49)" xlink:href="#DejaVuSans-29"/>
      <use transform="translate(755.724639 98.542969)scale(0.343)" xlink:href="#DejaVuSans-32"/>
      <use transform="translate(643.699542 3.504844)scale(0.49)" xlink:href="#DejaVuSans-32"/>
      <use transform="translate(674.874835 3.504844)scale(0.49)" xlink:href="#DejaVuSans-Oblique-3c3"/>
      <use transform="translate(708.122126 22.262656)scale(0.343)" xlink:href="#DejaVuSans-32"/>
      <path d="M 267.822266 19.4525 
L 267.822266 25.7025 
L 459.373865 25.7025 
L 459.373865 19.4525 
L 267.822266 19.4525 
z
"/>
      <path d="M 355.194177 4.4525 
L 355.194177 8.8275 
L 459.373865 8.8275 
L 459.373865 4.4525 
L 355.194177 4.4525 
z
"/>
      <path d="M 596.699542 52.094688 
L 596.699542 56.469688 
L 778.887188 56.469688 
L 778.887188 52.094688 
L 596.699542 52.094688 
z
"/>
     </g>
    </g>
   </g>
  </g>
 </g>
 <defs>
  <clipPath id="pc6356caf2f">
   <rect height="217.44" width="334.8" x="54" y="34.56"/>
  </clipPath>
 </defs>
</svg>
