<?xml version="1.0" encoding="utf-8" standalone="no"?>
<!DOCTYPE svg PUBLIC "-//W3C//DTD SVG 1.1//EN"
  "http://www.w3.org/Graphics/SVG/1.1/DTD/svg11.dtd">
<svg height="288pt" version="1.1" viewBox="0 0 432 288" width="432pt" xmlns="http://www.w3.org/2000/svg" xmlns:xlink="http://www.w3.org/1999/xlink">
 <metadata>
  <rdf:RDF xmlns:cc="http://creativecommons.org/ns#" xmlns:dc="http://purl.org/dc/elements/1.1/" xmlns:rdf="http://www.w3.org/1999/02/22-rdf-syntax-ns#">
   <cc:Work>
    <dc:type rdf:resource="http://purl.org/dc/dcmitype/StillImage"/>
    <dc:date>2022-04-20T15:49:29.940072</dc:date>
    <dc:format>image/svg+xml</dc:format>
    <dc:creator>
     <cc:Agent>
      <dc:title>Matplotlib v3.4.3, https://matplotlib.org/</dc:title>
     </cc:Agent>
    </dc:creator>
   </cc:Work>
  </rdf:RDF>
 </metadata>
 <defs>
  <style type="text/css">*{stroke-linecap:butt;stroke-linejoin:round;}</style>
 </defs>
 <g id="figure_1">
  <g id="patch_1">
   <path d="M 0 288 
L 432 288 
L 432 0 
L 0 0 
z
" style="fill:none;"/>
  </g>
  <g id="axes_1">
   <g id="patch_2">
    <path d="M 54 252 
L 388.8 252 
L 388.8 34.56 
L 54 34.56 
z
" style="fill:#ffffff;"/>
   </g>
   <g id="PathCollection_1">
    <defs>
     <path d="M 0 0.5 
C 0.132602 0.5 0.25979 0.447317 0.353553 0.353553 
C 0.447317 0.25979 0.5 0.132602 0.5 0 
C 0.5 -0.132602 0.447317 -0.25979 0.353553 -0.353553 
C 0.25979 -0.447317 0.132602 -0.5 0 -0.5 
C -0.132602 -0.5 -0.25979 -0.447317 -0.353553 -0.353553 
C -0.447317 -0.25979 -0.5 -0.132602 -0.5 0 
C -0.5 0.132602 -0.447317 0.25979 -0.353553 0.353553 
C -0.25979 0.447317 -0.132602 0.5 0 0.5 
z
" id="m123416fdf9" style="stroke:#1f77b4;"/>
    </defs>
    <g clip-path="url(#p4a14f80b6d)">
     <use style="fill:#1f77b4;stroke:#1f77b4;" x="69.218182" xlink:href="#m123416fdf9" y="241.047611"/>
     <use style="fill:#1f77b4;stroke:#1f77b4;" x="74.127273" xlink:href="#m123416fdf9" y="242.116364"/>
     <use style="fill:#1f77b4;stroke:#1f77b4;" x="79.036364" xlink:href="#m123416fdf9" y="242.069896"/>
     <use style="fill:#1f77b4;stroke:#1f77b4;" x="83.945455" xlink:href="#m123416fdf9" y="241.698156"/>
     <use style="fill:#1f77b4;stroke:#1f77b4;" x="88.854545" xlink:href="#m123416fdf9" y="241.512286"/>
     <use style="fill:#1f77b4;stroke:#1f77b4;" x="93.763636" xlink:href="#m123416fdf9" y="241.279949"/>
     <use style="fill:#1f77b4;stroke:#1f77b4;" x="98.672727" xlink:href="#m123416fdf9" y="240.861741"/>
     <use style="fill:#1f77b4;stroke:#1f77b4;" x="103.581818" xlink:href="#m123416fdf9" y="239.188911"/>
     <use style="fill:#1f77b4;stroke:#1f77b4;" x="108.490909" xlink:href="#m123416fdf9" y="237.562549"/>
     <use style="fill:#1f77b4;stroke:#1f77b4;" x="113.4" xlink:href="#m123416fdf9" y="234.960369"/>
     <use style="fill:#1f77b4;stroke:#1f77b4;" x="118.309091" xlink:href="#m123416fdf9" y="231.893515"/>
     <use style="fill:#1f77b4;stroke:#1f77b4;" x="123.218182" xlink:href="#m123416fdf9" y="229.337802"/>
     <use style="fill:#1f77b4;stroke:#1f77b4;" x="128.127273" xlink:href="#m123416fdf9" y="222.785885"/>
     <use style="fill:#1f77b4;stroke:#1f77b4;" x="133.036364" xlink:href="#m123416fdf9" y="216.512773"/>
     <use style="fill:#1f77b4;stroke:#1f77b4;" x="137.945455" xlink:href="#m123416fdf9" y="208.195092"/>
     <use style="fill:#1f77b4;stroke:#1f77b4;" x="142.854545" xlink:href="#m123416fdf9" y="203.59481"/>
     <use style="fill:#1f77b4;stroke:#1f77b4;" x="147.763636" xlink:href="#m123416fdf9" y="191.606196"/>
     <use style="fill:#1f77b4;stroke:#1f77b4;" x="152.672727" xlink:href="#m123416fdf9" y="183.009709"/>
     <use style="fill:#1f77b4;stroke:#1f77b4;" x="157.581818" xlink:href="#m123416fdf9" y="175.714312"/>
     <use style="fill:#1f77b4;stroke:#1f77b4;" x="162.490909" xlink:href="#m123416fdf9" y="162.378141"/>
     <use style="fill:#1f77b4;stroke:#1f77b4;" x="167.4" xlink:href="#m123416fdf9" y="151.876487"/>
     <use style="fill:#1f77b4;stroke:#1f77b4;" x="172.309091" xlink:href="#m123416fdf9" y="134.822916"/>
     <use style="fill:#1f77b4;stroke:#1f77b4;" x="177.218182" xlink:href="#m123416fdf9" y="126.226429"/>
     <use style="fill:#1f77b4;stroke:#1f77b4;" x="182.127273" xlink:href="#m123416fdf9" y="115.2601"/>
     <use style="fill:#1f77b4;stroke:#1f77b4;" x="187.036364" xlink:href="#m123416fdf9" y="103.689694"/>
     <use style="fill:#1f77b4;stroke:#1f77b4;" x="191.945455" xlink:href="#m123416fdf9" y="91.004067"/>
     <use style="fill:#1f77b4;stroke:#1f77b4;" x="196.854545" xlink:href="#m123416fdf9" y="85.056228"/>
     <use style="fill:#1f77b4;stroke:#1f77b4;" x="201.763636" xlink:href="#m123416fdf9" y="67.770319"/>
     <use style="fill:#1f77b4;stroke:#1f77b4;" x="206.672727" xlink:href="#m123416fdf9" y="63.634712"/>
     <use style="fill:#1f77b4;stroke:#1f77b4;" x="211.581818" xlink:href="#m123416fdf9" y="61.590142"/>
     <use style="fill:#1f77b4;stroke:#1f77b4;" x="216.490909" xlink:href="#m123416fdf9" y="48.904516"/>
     <use style="fill:#1f77b4;stroke:#1f77b4;" x="221.4" xlink:href="#m123416fdf9" y="52.854253"/>
     <use style="fill:#1f77b4;stroke:#1f77b4;" x="226.309091" xlink:href="#m123416fdf9" y="44.443636"/>
     <use style="fill:#1f77b4;stroke:#1f77b4;" x="231.218182" xlink:href="#m123416fdf9" y="49.555061"/>
     <use style="fill:#1f77b4;stroke:#1f77b4;" x="236.127273" xlink:href="#m123416fdf9" y="54.666485"/>
     <use style="fill:#1f77b4;stroke:#1f77b4;" x="241.036364" xlink:href="#m123416fdf9" y="60.52139"/>
     <use style="fill:#1f77b4;stroke:#1f77b4;" x="245.945455" xlink:href="#m123416fdf9" y="60.89313"/>
     <use style="fill:#1f77b4;stroke:#1f77b4;" x="250.854545" xlink:href="#m123416fdf9" y="71.580654"/>
     <use style="fill:#1f77b4;stroke:#1f77b4;" x="255.763636" xlink:href="#m123416fdf9" y="77.853766"/>
     <use style="fill:#1f77b4;stroke:#1f77b4;" x="260.672727" xlink:href="#m123416fdf9" y="85.00976"/>
     <use style="fill:#1f77b4;stroke:#1f77b4;" x="265.581818" xlink:href="#m123416fdf9" y="101.923929"/>
     <use style="fill:#1f77b4;stroke:#1f77b4;" x="270.490909" xlink:href="#m123416fdf9" y="117.1188"/>
     <use style="fill:#1f77b4;stroke:#1f77b4;" x="275.4" xlink:href="#m123416fdf9" y="128.131596"/>
     <use style="fill:#1f77b4;stroke:#1f77b4;" x="280.309091" xlink:href="#m123416fdf9" y="138.865588"/>
     <use style="fill:#1f77b4;stroke:#1f77b4;" x="285.218182" xlink:href="#m123416fdf9" y="148.066152"/>
     <use style="fill:#1f77b4;stroke:#1f77b4;" x="290.127273" xlink:href="#m123416fdf9" y="161.077051"/>
     <use style="fill:#1f77b4;stroke:#1f77b4;" x="295.036364" xlink:href="#m123416fdf9" y="171.85751"/>
     <use style="fill:#1f77b4;stroke:#1f77b4;" x="299.945455" xlink:href="#m123416fdf9" y="183.939059"/>
     <use style="fill:#1f77b4;stroke:#1f77b4;" x="304.854545" xlink:href="#m123416fdf9" y="194.022505"/>
     <use style="fill:#1f77b4;stroke:#1f77b4;" x="309.763636" xlink:href="#m123416fdf9" y="203.362472"/>
     <use style="fill:#1f77b4;stroke:#1f77b4;" x="314.672727" xlink:href="#m123416fdf9" y="208.752702"/>
     <use style="fill:#1f77b4;stroke:#1f77b4;" x="319.581818" xlink:href="#m123416fdf9" y="216.745111"/>
     <use style="fill:#1f77b4;stroke:#1f77b4;" x="324.490909" xlink:href="#m123416fdf9" y="222.367678"/>
     <use style="fill:#1f77b4;stroke:#1f77b4;" x="329.4" xlink:href="#m123416fdf9" y="227.757907"/>
     <use style="fill:#1f77b4;stroke:#1f77b4;" x="334.309091" xlink:href="#m123416fdf9" y="231.661177"/>
     <use style="fill:#1f77b4;stroke:#1f77b4;" x="339.218182" xlink:href="#m123416fdf9" y="234.867434"/>
     <use style="fill:#1f77b4;stroke:#1f77b4;" x="344.127273" xlink:href="#m123416fdf9" y="237.701952"/>
     <use style="fill:#1f77b4;stroke:#1f77b4;" x="349.036364" xlink:href="#m123416fdf9" y="239.328314"/>
     <use style="fill:#1f77b4;stroke:#1f77b4;" x="353.945455" xlink:href="#m123416fdf9" y="240.954676"/>
     <use style="fill:#1f77b4;stroke:#1f77b4;" x="358.854545" xlink:href="#m123416fdf9" y="241.140546"/>
     <use style="fill:#1f77b4;stroke:#1f77b4;" x="363.763636" xlink:href="#m123416fdf9" y="241.465819"/>
     <use style="fill:#1f77b4;stroke:#1f77b4;" x="368.672727" xlink:href="#m123416fdf9" y="241.791091"/>
     <use style="fill:#1f77b4;stroke:#1f77b4;" x="373.581818" xlink:href="#m123416fdf9" y="242.069896"/>
    </g>
   </g>
   <g id="matplotlib.axis_1">
    <g id="xtick_1">
     <g id="line2d_1">
      <defs>
       <path d="M 0 0 
L 0 3.5 
" id="m582b2a5d79" style="stroke:#000000;stroke-width:0.8;"/>
      </defs>
      <g>
       <use style="stroke:#000000;stroke-width:0.8;" x="69.218182" xlink:href="#m582b2a5d79" y="252"/>
      </g>
     </g>
     <g id="text_1">
      <!-- 0 -->
      <g transform="translate(66.036932 266.598437)scale(0.1 -0.1)">
       <defs>
        <path d="M 2034 4250 
Q 1547 4250 1301 3770 
Q 1056 3291 1056 2328 
Q 1056 1369 1301 889 
Q 1547 409 2034 409 
Q 2525 409 2770 889 
Q 3016 1369 3016 2328 
Q 3016 3291 2770 3770 
Q 2525 4250 2034 4250 
z
M 2034 4750 
Q 2819 4750 3233 4129 
Q 3647 3509 3647 2328 
Q 3647 1150 3233 529 
Q 2819 -91 2034 -91 
Q 1250 -91 836 529 
Q 422 1150 422 2328 
Q 422 3509 836 4129 
Q 1250 4750 2034 4750 
z
" id="DejaVuSans-30" transform="scale(0.015625)"/>
       </defs>
       <use xlink:href="#DejaVuSans-30"/>
      </g>
     </g>
    </g>
    <g id="xtick_2">
     <g id="line2d_2">
      <g>
       <use style="stroke:#000000;stroke-width:0.8;" x="118.309091" xlink:href="#m582b2a5d79" y="252"/>
      </g>
     </g>
     <g id="text_2">
      <!-- 10 -->
      <g transform="translate(111.946591 266.598437)scale(0.1 -0.1)">
       <defs>
        <path d="M 794 531 
L 1825 531 
L 1825 4091 
L 703 3866 
L 703 4441 
L 1819 4666 
L 2450 4666 
L 2450 531 
L 3481 531 
L 3481 0 
L 794 0 
L 794 531 
z
" id="DejaVuSans-31" transform="scale(0.015625)"/>
       </defs>
       <use xlink:href="#DejaVuSans-31"/>
       <use x="63.623047" xlink:href="#DejaVuSans-30"/>
      </g>
     </g>
    </g>
    <g id="xtick_3">
     <g id="line2d_3">
      <g>
       <use style="stroke:#000000;stroke-width:0.8;" x="167.4" xlink:href="#m582b2a5d79" y="252"/>
      </g>
     </g>
     <g id="text_3">
      <!-- 20 -->
      <g transform="translate(161.0375 266.598437)scale(0.1 -0.1)">
       <defs>
        <path d="M 1228 531 
L 3431 531 
L 3431 0 
L 469 0 
L 469 531 
Q 828 903 1448 1529 
Q 2069 2156 2228 2338 
Q 2531 2678 2651 2914 
Q 2772 3150 2772 3378 
Q 2772 3750 2511 3984 
Q 2250 4219 1831 4219 
Q 1534 4219 1204 4116 
Q 875 4013 500 3803 
L 500 4441 
Q 881 4594 1212 4672 
Q 1544 4750 1819 4750 
Q 2544 4750 2975 4387 
Q 3406 4025 3406 3419 
Q 3406 3131 3298 2873 
Q 3191 2616 2906 2266 
Q 2828 2175 2409 1742 
Q 1991 1309 1228 531 
z
" id="DejaVuSans-32" transform="scale(0.015625)"/>
       </defs>
       <use xlink:href="#DejaVuSans-32"/>
       <use x="63.623047" xlink:href="#DejaVuSans-30"/>
      </g>
     </g>
    </g>
    <g id="xtick_4">
     <g id="line2d_4">
      <g>
       <use style="stroke:#000000;stroke-width:0.8;" x="216.490909" xlink:href="#m582b2a5d79" y="252"/>
      </g>
     </g>
     <g id="text_4">
      <!-- 30 -->
      <g transform="translate(210.128409 266.598437)scale(0.1 -0.1)">
       <defs>
        <path d="M 2597 2516 
Q 3050 2419 3304 2112 
Q 3559 1806 3559 1356 
Q 3559 666 3084 287 
Q 2609 -91 1734 -91 
Q 1441 -91 1130 -33 
Q 819 25 488 141 
L 488 750 
Q 750 597 1062 519 
Q 1375 441 1716 441 
Q 2309 441 2620 675 
Q 2931 909 2931 1356 
Q 2931 1769 2642 2001 
Q 2353 2234 1838 2234 
L 1294 2234 
L 1294 2753 
L 1863 2753 
Q 2328 2753 2575 2939 
Q 2822 3125 2822 3475 
Q 2822 3834 2567 4026 
Q 2313 4219 1838 4219 
Q 1578 4219 1281 4162 
Q 984 4106 628 3988 
L 628 4550 
Q 988 4650 1302 4700 
Q 1616 4750 1894 4750 
Q 2613 4750 3031 4423 
Q 3450 4097 3450 3541 
Q 3450 3153 3228 2886 
Q 3006 2619 2597 2516 
z
" id="DejaVuSans-33" transform="scale(0.015625)"/>
       </defs>
       <use xlink:href="#DejaVuSans-33"/>
       <use x="63.623047" xlink:href="#DejaVuSans-30"/>
      </g>
     </g>
    </g>
    <g id="xtick_5">
     <g id="line2d_5">
      <g>
       <use style="stroke:#000000;stroke-width:0.8;" x="265.581818" xlink:href="#m582b2a5d79" y="252"/>
      </g>
     </g>
     <g id="text_5">
      <!-- 40 -->
      <g transform="translate(259.219318 266.598437)scale(0.1 -0.1)">
       <defs>
        <path d="M 2419 4116 
L 825 1625 
L 2419 1625 
L 2419 4116 
z
M 2253 4666 
L 3047 4666 
L 3047 1625 
L 3713 1625 
L 3713 1100 
L 3047 1100 
L 3047 0 
L 2419 0 
L 2419 1100 
L 313 1100 
L 313 1709 
L 2253 4666 
z
" id="DejaVuSans-34" transform="scale(0.015625)"/>
       </defs>
       <use xlink:href="#DejaVuSans-34"/>
       <use x="63.623047" xlink:href="#DejaVuSans-30"/>
      </g>
     </g>
    </g>
    <g id="xtick_6">
     <g id="line2d_6">
      <g>
       <use style="stroke:#000000;stroke-width:0.8;" x="314.672727" xlink:href="#m582b2a5d79" y="252"/>
      </g>
     </g>
     <g id="text_6">
      <!-- 50 -->
      <g transform="translate(308.310227 266.598437)scale(0.1 -0.1)">
       <defs>
        <path d="M 691 4666 
L 3169 4666 
L 3169 4134 
L 1269 4134 
L 1269 2991 
Q 1406 3038 1543 3061 
Q 1681 3084 1819 3084 
Q 2600 3084 3056 2656 
Q 3513 2228 3513 1497 
Q 3513 744 3044 326 
Q 2575 -91 1722 -91 
Q 1428 -91 1123 -41 
Q 819 9 494 109 
L 494 744 
Q 775 591 1075 516 
Q 1375 441 1709 441 
Q 2250 441 2565 725 
Q 2881 1009 2881 1497 
Q 2881 1984 2565 2268 
Q 2250 2553 1709 2553 
Q 1456 2553 1204 2497 
Q 953 2441 691 2322 
L 691 4666 
z
" id="DejaVuSans-35" transform="scale(0.015625)"/>
       </defs>
       <use xlink:href="#DejaVuSans-35"/>
       <use x="63.623047" xlink:href="#DejaVuSans-30"/>
      </g>
     </g>
    </g>
    <g id="xtick_7">
     <g id="line2d_7">
      <g>
       <use style="stroke:#000000;stroke-width:0.8;" x="363.763636" xlink:href="#m582b2a5d79" y="252"/>
      </g>
     </g>
     <g id="text_7">
      <!-- 60 -->
      <g transform="translate(357.401136 266.598437)scale(0.1 -0.1)">
       <defs>
        <path d="M 2113 2584 
Q 1688 2584 1439 2293 
Q 1191 2003 1191 1497 
Q 1191 994 1439 701 
Q 1688 409 2113 409 
Q 2538 409 2786 701 
Q 3034 994 3034 1497 
Q 3034 2003 2786 2293 
Q 2538 2584 2113 2584 
z
M 3366 4563 
L 3366 3988 
Q 3128 4100 2886 4159 
Q 2644 4219 2406 4219 
Q 1781 4219 1451 3797 
Q 1122 3375 1075 2522 
Q 1259 2794 1537 2939 
Q 1816 3084 2150 3084 
Q 2853 3084 3261 2657 
Q 3669 2231 3669 1497 
Q 3669 778 3244 343 
Q 2819 -91 2113 -91 
Q 1303 -91 875 529 
Q 447 1150 447 2328 
Q 447 3434 972 4092 
Q 1497 4750 2381 4750 
Q 2619 4750 2861 4703 
Q 3103 4656 3366 4563 
z
" id="DejaVuSans-36" transform="scale(0.015625)"/>
       </defs>
       <use xlink:href="#DejaVuSans-36"/>
       <use x="63.623047" xlink:href="#DejaVuSans-30"/>
      </g>
     </g>
    </g>
    <g id="text_8">
     <!-- Score de Aléa A -->
     <g transform="translate(182.009375 280.276563)scale(0.1 -0.1)">
      <defs>
       <path d="M 3425 4513 
L 3425 3897 
Q 3066 4069 2747 4153 
Q 2428 4238 2131 4238 
Q 1616 4238 1336 4038 
Q 1056 3838 1056 3469 
Q 1056 3159 1242 3001 
Q 1428 2844 1947 2747 
L 2328 2669 
Q 3034 2534 3370 2195 
Q 3706 1856 3706 1288 
Q 3706 609 3251 259 
Q 2797 -91 1919 -91 
Q 1588 -91 1214 -16 
Q 841 59 441 206 
L 441 856 
Q 825 641 1194 531 
Q 1563 422 1919 422 
Q 2459 422 2753 634 
Q 3047 847 3047 1241 
Q 3047 1584 2836 1778 
Q 2625 1972 2144 2069 
L 1759 2144 
Q 1053 2284 737 2584 
Q 422 2884 422 3419 
Q 422 4038 858 4394 
Q 1294 4750 2059 4750 
Q 2388 4750 2728 4690 
Q 3069 4631 3425 4513 
z
" id="DejaVuSans-53" transform="scale(0.015625)"/>
       <path d="M 3122 3366 
L 3122 2828 
Q 2878 2963 2633 3030 
Q 2388 3097 2138 3097 
Q 1578 3097 1268 2742 
Q 959 2388 959 1747 
Q 959 1106 1268 751 
Q 1578 397 2138 397 
Q 2388 397 2633 464 
Q 2878 531 3122 666 
L 3122 134 
Q 2881 22 2623 -34 
Q 2366 -91 2075 -91 
Q 1284 -91 818 406 
Q 353 903 353 1747 
Q 353 2603 823 3093 
Q 1294 3584 2113 3584 
Q 2378 3584 2631 3529 
Q 2884 3475 3122 3366 
z
" id="DejaVuSans-63" transform="scale(0.015625)"/>
       <path d="M 1959 3097 
Q 1497 3097 1228 2736 
Q 959 2375 959 1747 
Q 959 1119 1226 758 
Q 1494 397 1959 397 
Q 2419 397 2687 759 
Q 2956 1122 2956 1747 
Q 2956 2369 2687 2733 
Q 2419 3097 1959 3097 
z
M 1959 3584 
Q 2709 3584 3137 3096 
Q 3566 2609 3566 1747 
Q 3566 888 3137 398 
Q 2709 -91 1959 -91 
Q 1206 -91 779 398 
Q 353 888 353 1747 
Q 353 2609 779 3096 
Q 1206 3584 1959 3584 
z
" id="DejaVuSans-6f" transform="scale(0.015625)"/>
       <path d="M 2631 2963 
Q 2534 3019 2420 3045 
Q 2306 3072 2169 3072 
Q 1681 3072 1420 2755 
Q 1159 2438 1159 1844 
L 1159 0 
L 581 0 
L 581 3500 
L 1159 3500 
L 1159 2956 
Q 1341 3275 1631 3429 
Q 1922 3584 2338 3584 
Q 2397 3584 2469 3576 
Q 2541 3569 2628 3553 
L 2631 2963 
z
" id="DejaVuSans-72" transform="scale(0.015625)"/>
       <path d="M 3597 1894 
L 3597 1613 
L 953 1613 
Q 991 1019 1311 708 
Q 1631 397 2203 397 
Q 2534 397 2845 478 
Q 3156 559 3463 722 
L 3463 178 
Q 3153 47 2828 -22 
Q 2503 -91 2169 -91 
Q 1331 -91 842 396 
Q 353 884 353 1716 
Q 353 2575 817 3079 
Q 1281 3584 2069 3584 
Q 2775 3584 3186 3129 
Q 3597 2675 3597 1894 
z
M 3022 2063 
Q 3016 2534 2758 2815 
Q 2500 3097 2075 3097 
Q 1594 3097 1305 2825 
Q 1016 2553 972 2059 
L 3022 2063 
z
" id="DejaVuSans-65" transform="scale(0.015625)"/>
       <path id="DejaVuSans-20" transform="scale(0.015625)"/>
       <path d="M 2906 2969 
L 2906 4863 
L 3481 4863 
L 3481 0 
L 2906 0 
L 2906 525 
Q 2725 213 2448 61 
Q 2172 -91 1784 -91 
Q 1150 -91 751 415 
Q 353 922 353 1747 
Q 353 2572 751 3078 
Q 1150 3584 1784 3584 
Q 2172 3584 2448 3432 
Q 2725 3281 2906 2969 
z
M 947 1747 
Q 947 1113 1208 752 
Q 1469 391 1925 391 
Q 2381 391 2643 752 
Q 2906 1113 2906 1747 
Q 2906 2381 2643 2742 
Q 2381 3103 1925 3103 
Q 1469 3103 1208 2742 
Q 947 2381 947 1747 
z
" id="DejaVuSans-64" transform="scale(0.015625)"/>
       <path d="M 2188 4044 
L 1331 1722 
L 3047 1722 
L 2188 4044 
z
M 1831 4666 
L 2547 4666 
L 4325 0 
L 3669 0 
L 3244 1197 
L 1141 1197 
L 716 0 
L 50 0 
L 1831 4666 
z
" id="DejaVuSans-41" transform="scale(0.015625)"/>
       <path d="M 603 4863 
L 1178 4863 
L 1178 0 
L 603 0 
L 603 4863 
z
" id="DejaVuSans-6c" transform="scale(0.015625)"/>
       <path d="M 3597 1894 
L 3597 1613 
L 953 1613 
Q 991 1019 1311 708 
Q 1631 397 2203 397 
Q 2534 397 2845 478 
Q 3156 559 3463 722 
L 3463 178 
Q 3153 47 2828 -22 
Q 2503 -91 2169 -91 
Q 1331 -91 842 396 
Q 353 884 353 1716 
Q 353 2575 817 3079 
Q 1281 3584 2069 3584 
Q 2775 3584 3186 3129 
Q 3597 2675 3597 1894 
z
M 3022 2063 
Q 3016 2534 2758 2815 
Q 2500 3097 2075 3097 
Q 1594 3097 1305 2825 
Q 1016 2553 972 2059 
L 3022 2063 
z
M 2469 5119 
L 3091 5119 
L 2072 3944 
L 1594 3944 
L 2469 5119 
z
" id="DejaVuSans-e9" transform="scale(0.015625)"/>
       <path d="M 2194 1759 
Q 1497 1759 1228 1600 
Q 959 1441 959 1056 
Q 959 750 1161 570 
Q 1363 391 1709 391 
Q 2188 391 2477 730 
Q 2766 1069 2766 1631 
L 2766 1759 
L 2194 1759 
z
M 3341 1997 
L 3341 0 
L 2766 0 
L 2766 531 
Q 2569 213 2275 61 
Q 1981 -91 1556 -91 
Q 1019 -91 701 211 
Q 384 513 384 1019 
Q 384 1609 779 1909 
Q 1175 2209 1959 2209 
L 2766 2209 
L 2766 2266 
Q 2766 2663 2505 2880 
Q 2244 3097 1772 3097 
Q 1472 3097 1187 3025 
Q 903 2953 641 2809 
L 641 3341 
Q 956 3463 1253 3523 
Q 1550 3584 1831 3584 
Q 2591 3584 2966 3190 
Q 3341 2797 3341 1997 
z
" id="DejaVuSans-61" transform="scale(0.015625)"/>
      </defs>
      <use xlink:href="#DejaVuSans-53"/>
      <use x="63.476562" xlink:href="#DejaVuSans-63"/>
      <use x="118.457031" xlink:href="#DejaVuSans-6f"/>
      <use x="179.638672" xlink:href="#DejaVuSans-72"/>
      <use x="218.501953" xlink:href="#DejaVuSans-65"/>
      <use x="280.025391" xlink:href="#DejaVuSans-20"/>
      <use x="311.8125" xlink:href="#DejaVuSans-64"/>
      <use x="375.289062" xlink:href="#DejaVuSans-65"/>
      <use x="436.8125" xlink:href="#DejaVuSans-20"/>
      <use x="468.599609" xlink:href="#DejaVuSans-41"/>
      <use x="537.007812" xlink:href="#DejaVuSans-6c"/>
      <use x="564.791016" xlink:href="#DejaVuSans-e9"/>
      <use x="626.314453" xlink:href="#DejaVuSans-61"/>
      <use x="687.59375" xlink:href="#DejaVuSans-20"/>
      <use x="719.380859" xlink:href="#DejaVuSans-41"/>
     </g>
    </g>
   </g>
   <g id="matplotlib.axis_2">
    <g id="ytick_1">
     <g id="line2d_8">
      <defs>
       <path d="M 0 0 
L -3.5 0 
" id="mebc868c3af" style="stroke:#000000;stroke-width:0.8;"/>
      </defs>
      <g>
       <use style="stroke:#000000;stroke-width:0.8;" x="54" xlink:href="#mebc868c3af" y="242.162831"/>
      </g>
     </g>
     <g id="text_9">
      <!-- 0 -->
      <g transform="translate(40.6375 245.96205)scale(0.1 -0.1)">
       <use xlink:href="#DejaVuSans-30"/>
      </g>
     </g>
    </g>
    <g id="ytick_2">
     <g id="line2d_9">
      <g>
       <use style="stroke:#000000;stroke-width:0.8;" x="54" xlink:href="#mebc868c3af" y="195.695335"/>
      </g>
     </g>
     <g id="text_10">
      <!-- 1000 -->
      <g transform="translate(21.55 199.494554)scale(0.1 -0.1)">
       <use xlink:href="#DejaVuSans-31"/>
       <use x="63.623047" xlink:href="#DejaVuSans-30"/>
       <use x="127.246094" xlink:href="#DejaVuSans-30"/>
       <use x="190.869141" xlink:href="#DejaVuSans-30"/>
      </g>
     </g>
    </g>
    <g id="ytick_3">
     <g id="line2d_10">
      <g>
       <use style="stroke:#000000;stroke-width:0.8;" x="54" xlink:href="#mebc868c3af" y="149.227839"/>
      </g>
     </g>
     <g id="text_11">
      <!-- 2000 -->
      <g transform="translate(21.55 153.027058)scale(0.1 -0.1)">
       <use xlink:href="#DejaVuSans-32"/>
       <use x="63.623047" xlink:href="#DejaVuSans-30"/>
       <use x="127.246094" xlink:href="#DejaVuSans-30"/>
       <use x="190.869141" xlink:href="#DejaVuSans-30"/>
      </g>
     </g>
    </g>
    <g id="ytick_4">
     <g id="line2d_11">
      <g>
       <use style="stroke:#000000;stroke-width:0.8;" x="54" xlink:href="#mebc868c3af" y="102.760344"/>
      </g>
     </g>
     <g id="text_12">
      <!-- 3000 -->
      <g transform="translate(21.55 106.559562)scale(0.1 -0.1)">
       <use xlink:href="#DejaVuSans-33"/>
       <use x="63.623047" xlink:href="#DejaVuSans-30"/>
       <use x="127.246094" xlink:href="#DejaVuSans-30"/>
       <use x="190.869141" xlink:href="#DejaVuSans-30"/>
      </g>
     </g>
    </g>
    <g id="ytick_5">
     <g id="line2d_12">
      <g>
       <use style="stroke:#000000;stroke-width:0.8;" x="54" xlink:href="#mebc868c3af" y="56.292848"/>
      </g>
     </g>
     <g id="text_13">
      <!-- 4000 -->
      <g transform="translate(21.55 60.092067)scale(0.1 -0.1)">
       <use xlink:href="#DejaVuSans-34"/>
       <use x="63.623047" xlink:href="#DejaVuSans-30"/>
       <use x="127.246094" xlink:href="#DejaVuSans-30"/>
       <use x="190.869141" xlink:href="#DejaVuSans-30"/>
      </g>
     </g>
    </g>
    <g id="text_14">
     <!-- Nombre de parties -->
     <g transform="translate(15.470312 189.897188)rotate(-90)scale(0.1 -0.1)">
      <defs>
       <path d="M 628 4666 
L 1478 4666 
L 3547 763 
L 3547 4666 
L 4159 4666 
L 4159 0 
L 3309 0 
L 1241 3903 
L 1241 0 
L 628 0 
L 628 4666 
z
" id="DejaVuSans-4e" transform="scale(0.015625)"/>
       <path d="M 3328 2828 
Q 3544 3216 3844 3400 
Q 4144 3584 4550 3584 
Q 5097 3584 5394 3201 
Q 5691 2819 5691 2113 
L 5691 0 
L 5113 0 
L 5113 2094 
Q 5113 2597 4934 2840 
Q 4756 3084 4391 3084 
Q 3944 3084 3684 2787 
Q 3425 2491 3425 1978 
L 3425 0 
L 2847 0 
L 2847 2094 
Q 2847 2600 2669 2842 
Q 2491 3084 2119 3084 
Q 1678 3084 1418 2786 
Q 1159 2488 1159 1978 
L 1159 0 
L 581 0 
L 581 3500 
L 1159 3500 
L 1159 2956 
Q 1356 3278 1631 3431 
Q 1906 3584 2284 3584 
Q 2666 3584 2933 3390 
Q 3200 3197 3328 2828 
z
" id="DejaVuSans-6d" transform="scale(0.015625)"/>
       <path d="M 3116 1747 
Q 3116 2381 2855 2742 
Q 2594 3103 2138 3103 
Q 1681 3103 1420 2742 
Q 1159 2381 1159 1747 
Q 1159 1113 1420 752 
Q 1681 391 2138 391 
Q 2594 391 2855 752 
Q 3116 1113 3116 1747 
z
M 1159 2969 
Q 1341 3281 1617 3432 
Q 1894 3584 2278 3584 
Q 2916 3584 3314 3078 
Q 3713 2572 3713 1747 
Q 3713 922 3314 415 
Q 2916 -91 2278 -91 
Q 1894 -91 1617 61 
Q 1341 213 1159 525 
L 1159 0 
L 581 0 
L 581 4863 
L 1159 4863 
L 1159 2969 
z
" id="DejaVuSans-62" transform="scale(0.015625)"/>
       <path d="M 1159 525 
L 1159 -1331 
L 581 -1331 
L 581 3500 
L 1159 3500 
L 1159 2969 
Q 1341 3281 1617 3432 
Q 1894 3584 2278 3584 
Q 2916 3584 3314 3078 
Q 3713 2572 3713 1747 
Q 3713 922 3314 415 
Q 2916 -91 2278 -91 
Q 1894 -91 1617 61 
Q 1341 213 1159 525 
z
M 3116 1747 
Q 3116 2381 2855 2742 
Q 2594 3103 2138 3103 
Q 1681 3103 1420 2742 
Q 1159 2381 1159 1747 
Q 1159 1113 1420 752 
Q 1681 391 2138 391 
Q 2594 391 2855 752 
Q 3116 1113 3116 1747 
z
" id="DejaVuSans-70" transform="scale(0.015625)"/>
       <path d="M 1172 4494 
L 1172 3500 
L 2356 3500 
L 2356 3053 
L 1172 3053 
L 1172 1153 
Q 1172 725 1289 603 
Q 1406 481 1766 481 
L 2356 481 
L 2356 0 
L 1766 0 
Q 1100 0 847 248 
Q 594 497 594 1153 
L 594 3053 
L 172 3053 
L 172 3500 
L 594 3500 
L 594 4494 
L 1172 4494 
z
" id="DejaVuSans-74" transform="scale(0.015625)"/>
       <path d="M 603 3500 
L 1178 3500 
L 1178 0 
L 603 0 
L 603 3500 
z
M 603 4863 
L 1178 4863 
L 1178 4134 
L 603 4134 
L 603 4863 
z
" id="DejaVuSans-69" transform="scale(0.015625)"/>
       <path d="M 2834 3397 
L 2834 2853 
Q 2591 2978 2328 3040 
Q 2066 3103 1784 3103 
Q 1356 3103 1142 2972 
Q 928 2841 928 2578 
Q 928 2378 1081 2264 
Q 1234 2150 1697 2047 
L 1894 2003 
Q 2506 1872 2764 1633 
Q 3022 1394 3022 966 
Q 3022 478 2636 193 
Q 2250 -91 1575 -91 
Q 1294 -91 989 -36 
Q 684 19 347 128 
L 347 722 
Q 666 556 975 473 
Q 1284 391 1588 391 
Q 1994 391 2212 530 
Q 2431 669 2431 922 
Q 2431 1156 2273 1281 
Q 2116 1406 1581 1522 
L 1381 1569 
Q 847 1681 609 1914 
Q 372 2147 372 2553 
Q 372 3047 722 3315 
Q 1072 3584 1716 3584 
Q 2034 3584 2315 3537 
Q 2597 3491 2834 3397 
z
" id="DejaVuSans-73" transform="scale(0.015625)"/>
      </defs>
      <use xlink:href="#DejaVuSans-4e"/>
      <use x="74.804688" xlink:href="#DejaVuSans-6f"/>
      <use x="135.986328" xlink:href="#DejaVuSans-6d"/>
      <use x="233.398438" xlink:href="#DejaVuSans-62"/>
      <use x="296.875" xlink:href="#DejaVuSans-72"/>
      <use x="335.738281" xlink:href="#DejaVuSans-65"/>
      <use x="397.261719" xlink:href="#DejaVuSans-20"/>
      <use x="429.048828" xlink:href="#DejaVuSans-64"/>
      <use x="492.525391" xlink:href="#DejaVuSans-65"/>
      <use x="554.048828" xlink:href="#DejaVuSans-20"/>
      <use x="585.835938" xlink:href="#DejaVuSans-70"/>
      <use x="649.3125" xlink:href="#DejaVuSans-61"/>
      <use x="710.591797" xlink:href="#DejaVuSans-72"/>
      <use x="751.705078" xlink:href="#DejaVuSans-74"/>
      <use x="790.914062" xlink:href="#DejaVuSans-69"/>
      <use x="818.697266" xlink:href="#DejaVuSans-65"/>
      <use x="880.220703" xlink:href="#DejaVuSans-73"/>
     </g>
    </g>
   </g>
   <g id="line2d_13">
    <path clip-path="url(#p4a14f80b6d)" d="M 69.218182 241.429104 
L 76.834889 240.918656 
L 82.928256 240.300048 
L 88.412285 239.522332 
L 93.286978 238.603083 
L 97.552334 237.580242 
L 101.513022 236.411467 
L 105.169042 235.114126 
L 108.825061 233.576156 
L 112.176413 231.927696 
L 115.527764 230.024522 
L 118.574447 228.051202 
L 121.62113 225.825742 
L 124.667813 223.328476 
L 127.714496 220.540356 
L 130.761179 217.443392 
L 133.807862 214.021128 
L 136.854545 210.259156 
L 139.901229 206.14566 
L 142.947912 201.671966 
L 146.299263 196.329071 
L 149.650614 190.543784 
L 153.001966 184.322531 
L 156.657985 177.055441 
L 160.618673 168.651632 
L 164.884029 159.045834 
L 169.758722 147.479352 
L 175.852088 132.401977 
L 189.86683 97.486806 
L 194.132187 87.547422 
L 197.788206 79.553592 
L 201.139558 72.764483 
L 204.186241 67.119443 
L 206.928256 62.523567 
L 209.365602 58.860653 
L 211.802948 55.624423 
L 213.935627 53.162498 
L 216.068305 51.061211 
L 217.896314 49.556821 
L 219.724324 48.333461 
L 221.552334 47.39662 
L 223.075676 46.83787 
L 224.599017 46.482796 
L 226.122359 46.332513 
L 227.6457 46.387494 
L 229.169042 46.647565 
L 230.692383 47.11191 
L 232.215725 47.779071 
L 234.043735 48.844396 
L 235.871744 50.193945 
L 237.699754 51.821675 
L 239.527764 53.720338 
L 241.660442 56.266601 
L 243.79312 59.154939 
L 246.230467 62.852772 
L 248.667813 66.946828 
L 251.409828 71.987884 
L 254.456511 78.074224 
L 257.807862 85.27988 
L 261.76855 94.359001 
L 266.643243 106.145183 
L 274.259951 125.248138 
L 282.790663 146.500554 
L 287.970025 158.818832 
L 292.235381 168.436929 
L 296.196069 176.853821 
L 299.852088 184.134014 
L 303.508108 190.913115 
L 306.859459 196.671241 
L 310.210811 201.98682 
L 313.562162 206.86089 
L 316.608845 210.9147 
L 319.655528 214.618764 
L 322.702211 217.985372 
L 325.748894 221.029313 
L 328.795577 223.767335 
L 331.84226 226.217639 
L 334.888943 228.399404 
L 338.240295 230.512739 
L 341.591646 232.351495 
L 344.942998 233.941862 
L 348.599017 235.423419 
L 352.255037 236.671241 
L 356.215725 237.793609 
L 360.481081 238.774159 
L 365.355774 239.653744 
L 370.535135 240.36091 
L 373.581818 240.688143 
L 373.581818 240.688143 
" style="fill:none;stroke:#ffa500;stroke-linecap:square;stroke-width:1.5;"/>
   </g>
   <g id="patch_3">
    <path d="M 54 252 
L 54 34.56 
" style="fill:none;stroke:#000000;stroke-linecap:square;stroke-linejoin:miter;stroke-width:0.8;"/>
   </g>
   <g id="patch_4">
    <path d="M 388.8 252 
L 388.8 34.56 
" style="fill:none;stroke:#000000;stroke-linecap:square;stroke-linejoin:miter;stroke-width:0.8;"/>
   </g>
   <g id="patch_5">
    <path d="M 54 252 
L 388.8 252 
" style="fill:none;stroke:#000000;stroke-linecap:square;stroke-linejoin:miter;stroke-width:0.8;"/>
   </g>
   <g id="patch_6">
    <path d="M 54 34.56 
L 388.8 34.56 
" style="fill:none;stroke:#000000;stroke-linecap:square;stroke-linejoin:miter;stroke-width:0.8;"/>
   </g>
   <g id="text_15">
    <!-- (a,$\sigma,\mu$) = (1.01e+05, 9.58, 32.0) -->
    <g transform="translate(122.82 28.56)scale(0.12 -0.12)">
     <defs>
      <path d="M 1984 4856 
Q 1566 4138 1362 3434 
Q 1159 2731 1159 2009 
Q 1159 1288 1364 580 
Q 1569 -128 1984 -844 
L 1484 -844 
Q 1016 -109 783 600 
Q 550 1309 550 2009 
Q 550 2706 781 3412 
Q 1013 4119 1484 4856 
L 1984 4856 
z
" id="DejaVuSans-28" transform="scale(0.015625)"/>
      <path d="M 750 794 
L 1409 794 
L 1409 256 
L 897 -744 
L 494 -744 
L 750 256 
L 750 794 
z
" id="DejaVuSans-2c" transform="scale(0.015625)"/>
      <path d="M 2219 3044 
Q 1744 3044 1422 2700 
Q 1081 2341 969 1747 
Q 844 1119 1044 756 
Q 1241 397 1706 397 
Q 2166 397 2503 759 
Q 2844 1122 2966 1747 
Q 3075 2319 2881 2700 
Q 2700 3044 2219 3044 
z
M 2309 3503 
L 4219 3500 
L 4106 2925 
L 3463 2925 
Q 3706 2438 3575 1747 
Q 3406 888 2884 400 
Q 2359 -91 1609 -91 
Q 856 -91 525 400 
Q 194 888 363 1747 
Q 528 2609 1050 3097 
Q 1484 3503 2309 3503 
z
" id="DejaVuSans-Oblique-3c3" transform="scale(0.015625)"/>
      <path d="M -84 -1331 
L 856 3500 
L 1434 3500 
L 1009 1322 
Q 997 1256 987 1175 
Q 978 1094 978 1013 
Q 978 722 1161 565 
Q 1344 409 1684 409 
Q 2147 409 2431 671 
Q 2716 934 2816 1459 
L 3213 3500 
L 3788 3500 
L 3266 809 
Q 3253 750 3248 706 
Q 3244 663 3244 628 
Q 3244 531 3283 486 
Q 3322 441 3406 441 
Q 3438 441 3492 456 
Q 3547 472 3647 513 
L 3559 50 
Q 3422 -19 3297 -55 
Q 3172 -91 3053 -91 
Q 2847 -91 2730 40 
Q 2613 172 2613 403 
Q 2438 153 2195 31 
Q 1953 -91 1625 -91 
Q 1334 -91 1117 43 
Q 900 178 831 397 
L 494 -1331 
L -84 -1331 
z
" id="DejaVuSans-Oblique-3bc" transform="scale(0.015625)"/>
      <path d="M 513 4856 
L 1013 4856 
Q 1481 4119 1714 3412 
Q 1947 2706 1947 2009 
Q 1947 1309 1714 600 
Q 1481 -109 1013 -844 
L 513 -844 
Q 928 -128 1133 580 
Q 1338 1288 1338 2009 
Q 1338 2731 1133 3434 
Q 928 4138 513 4856 
z
" id="DejaVuSans-29" transform="scale(0.015625)"/>
      <path d="M 678 2906 
L 4684 2906 
L 4684 2381 
L 678 2381 
L 678 2906 
z
M 678 1631 
L 4684 1631 
L 4684 1100 
L 678 1100 
L 678 1631 
z
" id="DejaVuSans-3d" transform="scale(0.015625)"/>
      <path d="M 684 794 
L 1344 794 
L 1344 0 
L 684 0 
L 684 794 
z
" id="DejaVuSans-2e" transform="scale(0.015625)"/>
      <path d="M 2944 4013 
L 2944 2272 
L 4684 2272 
L 4684 1741 
L 2944 1741 
L 2944 0 
L 2419 0 
L 2419 1741 
L 678 1741 
L 678 2272 
L 2419 2272 
L 2419 4013 
L 2944 4013 
z
" id="DejaVuSans-2b" transform="scale(0.015625)"/>
      <path d="M 703 97 
L 703 672 
Q 941 559 1184 500 
Q 1428 441 1663 441 
Q 2288 441 2617 861 
Q 2947 1281 2994 2138 
Q 2813 1869 2534 1725 
Q 2256 1581 1919 1581 
Q 1219 1581 811 2004 
Q 403 2428 403 3163 
Q 403 3881 828 4315 
Q 1253 4750 1959 4750 
Q 2769 4750 3195 4129 
Q 3622 3509 3622 2328 
Q 3622 1225 3098 567 
Q 2575 -91 1691 -91 
Q 1453 -91 1209 -44 
Q 966 3 703 97 
z
M 1959 2075 
Q 2384 2075 2632 2365 
Q 2881 2656 2881 3163 
Q 2881 3666 2632 3958 
Q 2384 4250 1959 4250 
Q 1534 4250 1286 3958 
Q 1038 3666 1038 3163 
Q 1038 2656 1286 2365 
Q 1534 2075 1959 2075 
z
" id="DejaVuSans-39" transform="scale(0.015625)"/>
      <path d="M 2034 2216 
Q 1584 2216 1326 1975 
Q 1069 1734 1069 1313 
Q 1069 891 1326 650 
Q 1584 409 2034 409 
Q 2484 409 2743 651 
Q 3003 894 3003 1313 
Q 3003 1734 2745 1975 
Q 2488 2216 2034 2216 
z
M 1403 2484 
Q 997 2584 770 2862 
Q 544 3141 544 3541 
Q 544 4100 942 4425 
Q 1341 4750 2034 4750 
Q 2731 4750 3128 4425 
Q 3525 4100 3525 3541 
Q 3525 3141 3298 2862 
Q 3072 2584 2669 2484 
Q 3125 2378 3379 2068 
Q 3634 1759 3634 1313 
Q 3634 634 3220 271 
Q 2806 -91 2034 -91 
Q 1263 -91 848 271 
Q 434 634 434 1313 
Q 434 1759 690 2068 
Q 947 2378 1403 2484 
z
M 1172 3481 
Q 1172 3119 1398 2916 
Q 1625 2713 2034 2713 
Q 2441 2713 2670 2916 
Q 2900 3119 2900 3481 
Q 2900 3844 2670 4047 
Q 2441 4250 2034 4250 
Q 1625 4250 1398 4047 
Q 1172 3844 1172 3481 
z
" id="DejaVuSans-38" transform="scale(0.015625)"/>
     </defs>
     <use transform="translate(0 0.125)" xlink:href="#DejaVuSans-28"/>
     <use transform="translate(39.013672 0.125)" xlink:href="#DejaVuSans-61"/>
     <use transform="translate(100.292969 0.125)" xlink:href="#DejaVuSans-2c"/>
     <use transform="translate(132.080078 0.125)" xlink:href="#DejaVuSans-Oblique-3c3"/>
     <use transform="translate(195.458984 0.125)" xlink:href="#DejaVuSans-2c"/>
     <use transform="translate(246.728516 0.125)" xlink:href="#DejaVuSans-Oblique-3bc"/>
     <use transform="translate(310.351562 0.125)" xlink:href="#DejaVuSans-29"/>
     <use transform="translate(349.365234 0.125)" xlink:href="#DejaVuSans-20"/>
     <use transform="translate(381.152344 0.125)" xlink:href="#DejaVuSans-3d"/>
     <use transform="translate(464.941406 0.125)" xlink:href="#DejaVuSans-20"/>
     <use transform="translate(496.728516 0.125)" xlink:href="#DejaVuSans-28"/>
     <use transform="translate(535.742188 0.125)" xlink:href="#DejaVuSans-31"/>
     <use transform="translate(599.365234 0.125)" xlink:href="#DejaVuSans-2e"/>
     <use transform="translate(631.152344 0.125)" xlink:href="#DejaVuSans-30"/>
     <use transform="translate(694.775391 0.125)" xlink:href="#DejaVuSans-31"/>
     <use transform="translate(758.398438 0.125)" xlink:href="#DejaVuSans-65"/>
     <use transform="translate(819.921875 0.125)" xlink:href="#DejaVuSans-2b"/>
     <use transform="translate(903.710938 0.125)" xlink:href="#DejaVuSans-30"/>
     <use transform="translate(967.333984 0.125)" xlink:href="#DejaVuSans-35"/>
     <use transform="translate(1030.957031 0.125)" xlink:href="#DejaVuSans-2c"/>
     <use transform="translate(1062.744141 0.125)" xlink:href="#DejaVuSans-20"/>
     <use transform="translate(1094.53125 0.125)" xlink:href="#DejaVuSans-39"/>
     <use transform="translate(1158.154297 0.125)" xlink:href="#DejaVuSans-2e"/>
     <use transform="translate(1189.941406 0.125)" xlink:href="#DejaVuSans-35"/>
     <use transform="translate(1253.564453 0.125)" xlink:href="#DejaVuSans-38"/>
     <use transform="translate(1317.1875 0.125)" xlink:href="#DejaVuSans-2c"/>
     <use transform="translate(1348.974609 0.125)" xlink:href="#DejaVuSans-20"/>
     <use transform="translate(1380.761719 0.125)" xlink:href="#DejaVuSans-33"/>
     <use transform="translate(1444.384766 0.125)" xlink:href="#DejaVuSans-32"/>
     <use transform="translate(1508.007812 0.125)" xlink:href="#DejaVuSans-2e"/>
     <use transform="translate(1539.794922 0.125)" xlink:href="#DejaVuSans-30"/>
     <use transform="translate(1603.417969 0.125)" xlink:href="#DejaVuSans-29"/>
    </g>
   </g>
   <g id="legend_1">
    <g id="patch_7">
     <path d="M 270.7 66.66 
L 381.8 66.66 
Q 383.8 66.66 383.8 64.66 
L 383.8 41.56 
Q 383.8 39.56 381.8 39.56 
L 270.7 39.56 
Q 268.7 39.56 268.7 41.56 
L 268.7 64.66 
Q 268.7 66.66 270.7 66.66 
z
" style="fill:#ffffff;opacity:0.8;stroke:#cccccc;stroke-linejoin:miter;"/>
    </g>
    <g id="line2d_14">
     <path d="M 272.7 52.46 
L 292.7 52.46 
" style="fill:none;stroke:#ffa500;stroke-linecap:square;stroke-width:1.5;"/>
    </g>
    <g id="line2d_15"/>
    <g id="text_16">
     <!-- y = $a\frac{1}{\sigma \sqrt{2\pi}}e^{-\frac{(x-\mu)^2}{2\sigma^2}}$ -->
     <g transform="translate(300.7 55.96)scale(0.1 -0.1)">
      <defs>
       <path d="M 2059 -325 
Q 1816 -950 1584 -1140 
Q 1353 -1331 966 -1331 
L 506 -1331 
L 506 -850 
L 844 -850 
Q 1081 -850 1212 -737 
Q 1344 -625 1503 -206 
L 1606 56 
L 191 3500 
L 800 3500 
L 1894 763 
L 2988 3500 
L 3597 3500 
L 2059 -325 
z
" id="DejaVuSans-79" transform="scale(0.015625)"/>
       <path d="M 3438 1997 
L 3047 0 
L 2472 0 
L 2578 531 
Q 2325 219 2001 64 
Q 1678 -91 1281 -91 
Q 834 -91 548 182 
Q 263 456 263 884 
Q 263 1497 752 1853 
Q 1241 2209 2100 2209 
L 2900 2209 
L 2931 2363 
Q 2938 2388 2941 2417 
Q 2944 2447 2944 2509 
Q 2944 2788 2717 2942 
Q 2491 3097 2081 3097 
Q 1800 3097 1504 3025 
Q 1209 2953 897 2809 
L 997 3341 
Q 1322 3463 1633 3523 
Q 1944 3584 2234 3584 
Q 2853 3584 3176 3315 
Q 3500 3047 3500 2534 
Q 3500 2431 3484 2292 
Q 3469 2153 3438 1997 
z
M 2816 1759 
L 2241 1759 
Q 1534 1759 1195 1570 
Q 856 1381 856 984 
Q 856 709 1029 553 
Q 1203 397 1509 397 
Q 1978 397 2328 733 
Q 2678 1069 2791 1631 
L 2816 1759 
z
" id="DejaVuSans-Oblique-61" transform="scale(0.015625)"/>
       <path d="M 6970 9933 
L 3373 -1888 
L 3104 -1888 
L 1626 2918 
Q 1555 3149 1465 3251 
Q 1376 3354 1229 3354 
Q 1011 3354 794 3181 
L 717 3309 
L 1766 4115 
L 1926 4115 
L 3379 -602 
L 3405 -602 
L 6605 9933 
L 6970 9933 
z
" id="STIXSizeOneSym-Regular-221a" transform="scale(0.015625)"/>
       <path d="M 584 3500 
L 3938 3500 
L 3825 2925 
L 3384 2925 
L 2966 775 
Q 2922 550 2981 450 
Q 3038 353 3209 353 
Q 3256 353 3325 363 
Q 3397 369 3419 372 
L 3338 -44 
Q 3222 -84 3103 -103 
Q 2981 -122 2866 -122 
Q 2491 -122 2388 81 
Q 2284 288 2391 838 
L 2797 2925 
L 1506 2925 
L 938 0 
L 350 0 
L 919 2925 
L 472 2925 
L 584 3500 
z
" id="DejaVuSans-Oblique-3c0" transform="scale(0.015625)"/>
       <path d="M 3078 2063 
Q 3088 2113 3092 2166 
Q 3097 2219 3097 2272 
Q 3097 2653 2873 2875 
Q 2650 3097 2266 3097 
Q 1838 3097 1509 2826 
Q 1181 2556 1013 2059 
L 3078 2063 
z
M 3578 1613 
L 903 1613 
Q 884 1494 878 1425 
Q 872 1356 872 1306 
Q 872 872 1139 634 
Q 1406 397 1894 397 
Q 2269 397 2603 481 
Q 2938 566 3225 728 
L 3116 159 
Q 2806 34 2476 -28 
Q 2147 -91 1806 -91 
Q 1078 -91 686 257 
Q 294 606 294 1247 
Q 294 1794 489 2264 
Q 684 2734 1063 3103 
Q 1306 3334 1642 3459 
Q 1978 3584 2356 3584 
Q 2950 3584 3301 3228 
Q 3653 2872 3653 2272 
Q 3653 2128 3634 1964 
Q 3616 1800 3578 1613 
z
" id="DejaVuSans-Oblique-65" transform="scale(0.015625)"/>
       <path d="M 678 2272 
L 4684 2272 
L 4684 1741 
L 678 1741 
L 678 2272 
z
" id="DejaVuSans-2212" transform="scale(0.015625)"/>
       <path d="M 3841 3500 
L 2234 1784 
L 3219 0 
L 2559 0 
L 1819 1388 
L 531 0 
L -166 0 
L 1556 1844 
L 641 3500 
L 1300 3500 
L 1972 2234 
L 3144 3500 
L 3841 3500 
z
" id="DejaVuSans-Oblique-78" transform="scale(0.015625)"/>
      </defs>
      <use transform="translate(0 0.655625)" xlink:href="#DejaVuSans-79"/>
      <use transform="translate(59.179688 0.655625)" xlink:href="#DejaVuSans-20"/>
      <use transform="translate(90.966797 0.655625)" xlink:href="#DejaVuSans-3d"/>
      <use transform="translate(174.755859 0.655625)" xlink:href="#DejaVuSans-20"/>
      <use transform="translate(206.542969 0.655625)" xlink:href="#DejaVuSans-Oblique-61"/>
      <use transform="translate(341.822266 44.4525)scale(0.7)" xlink:href="#DejaVuSans-31"/>
      <use transform="translate(267.822266 -64.80375)scale(0.7)" xlink:href="#DejaVuSans-Oblique-3c3"/>
      <use transform="translate(312.1875 -54.139688)scale(0.406937)" xlink:href="#STIXSizeOneSym-Regular-221a"/>
      <use transform="translate(363.944177 -65.125625)scale(0.7)" xlink:href="#DejaVuSans-32"/>
      <use transform="translate(408.48031 -65.125625)scale(0.7)" xlink:href="#DejaVuSans-Oblique-3c0"/>
      <use transform="translate(471.873865 0.655625)" xlink:href="#DejaVuSans-Oblique-65"/>
      <use transform="translate(538.047198 38.936875)scale(0.7)" xlink:href="#DejaVuSans-2212"/>
      <use transform="translate(596.699542 79.785156)scale(0.49)" xlink:href="#DejaVuSans-28"/>
      <use transform="translate(615.816241 79.785156)scale(0.49)" xlink:href="#DejaVuSans-Oblique-78"/>
      <use transform="translate(654.360675 79.785156)scale(0.49)" xlink:href="#DejaVuSans-2212"/>
      <use transform="translate(704.963702 79.785156)scale(0.49)" xlink:href="#DejaVuSans-Oblique-3bc"/>
      <use transform="translate(736.138995 79.785156)scale(0.49)" xlink:href="#DejaVuSans-29"/>
      <use transform="translate(755.724639 98.542969)scale(0.343)" xlink:href="#DejaVuSans-32"/>
      <use transform="translate(643.699542 3.504844)scale(0.49)" xlink:href="#DejaVuSans-32"/>
      <use transform="translate(674.874835 3.504844)scale(0.49)" xlink:href="#DejaVuSans-Oblique-3c3"/>
      <use transform="translate(708.122126 22.262656)scale(0.343)" xlink:href="#DejaVuSans-32"/>
      <path d="M 267.822266 19.4525 
L 267.822266 25.7025 
L 459.373865 25.7025 
L 459.373865 19.4525 
L 267.822266 19.4525 
z
"/>
      <path d="M 355.194177 4.4525 
L 355.194177 8.8275 
L 459.373865 8.8275 
L 459.373865 4.4525 
L 355.194177 4.4525 
z
"/>
      <path d="M 596.699542 52.094688 
L 596.699542 56.469688 
L 778.887188 56.469688 
L 778.887188 52.094688 
L 596.699542 52.094688 
z
"/>
     </g>
    </g>
   </g>
  </g>
 </g>
 <defs>
  <clipPath id="p4a14f80b6d">
   <rect height="217.44" width="334.8" x="54" y="34.56"/>
  </clipPath>
 </defs>
</svg>
